<svg xmlns="http://www.w3.org/2000/svg" xmlns:xlink="http://www.w3.org/1999/xlink" width="335" height="244.733" viewBox="0 0 335 244.733">
    <defs>
        <clipPath id="clip-path">
            <path id="Clip_2" data-name="Clip 2" d="M0,0H335V210H0Z" fill="none"/>
        </clipPath>
        <filter id="Path" x="187.707" y="88.634" width="53.098" height="57.398" filterUnits="userSpaceOnUse">
            <feOffset dx="2" dy="4" input="SourceAlpha"/>
            <feGaussianBlur stdDeviation="8" result="blur"/>
            <feFlood flood-opacity="0.102"/>
            <feComposite operator="in" in2="blur"/>
            <feComposite in="SourceGraphic"/>
        </filter>
        <filter id="Shape" x="147" y="63.394" width="108.711" height="107.879" filterUnits="userSpaceOnUse">
            <feOffset dx="2" dy="4" input="SourceAlpha"/>
            <feGaussianBlur stdDeviation="8" result="blur-2"/>
            <feFlood flood-opacity="0.102"/>
            <feComposite operator="in" in2="blur-2"/>
            <feComposite in="SourceGraphic"/>
        </filter>
        <filter id="Path-2" x="174.807" y="95.084" width="53.098" height="50.948" filterUnits="userSpaceOnUse">
            <feOffset dx="2" dy="4" input="SourceAlpha"/>
            <feGaussianBlur stdDeviation="8" result="blur-3"/>
            <feFlood flood-opacity="0.102"/>
            <feComposite operator="in" in2="blur-3"/>
            <feComposite in="SourceGraphic"/>
        </filter>
        <clipPath id="clip-path-2">
            <path id="Clip_2-2" data-name="Clip 2" d="M0,0H16.265V11.047H0Z" transform="translate(0.119 0.178)" fill="none"/>
        </clipPath>
        <clipPath id="clip-path-3">
            <path id="Clip_5" data-name="Clip 5" d="M0,0H19.958V21.712H0Z" transform="translate(0.024 0.185)" fill="none"/>
        </clipPath>
        <filter id="Fill_4" x="250.241" y="-1.004" width="67.958" height="69.712" filterUnits="userSpaceOnUse">
            <feOffset dx="2" dy="4" input="SourceAlpha"/>
            <feGaussianBlur stdDeviation="8" result="blur-4"/>
            <feFlood flood-opacity="0.102"/>
            <feComposite operator="in" in2="blur-4"/>
            <feComposite in="SourceGraphic"/>
        </filter>
        <clipPath id="clip-path-4">
            <path id="Clip_8" data-name="Clip 8" d="M0,0H42.9V37.875H0Z" transform="translate(0 0.145)" fill="none"/>
        </clipPath>
        <filter id="Fill_7" x="239" y="20.343" width="90.904" height="85.875" filterUnits="userSpaceOnUse">
            <feOffset dx="2" dy="4" input="SourceAlpha"/>
            <feGaussianBlur stdDeviation="8" result="blur-5"/>
            <feFlood flood-opacity="0.102"/>
            <feComposite operator="in" in2="blur-5"/>
            <feComposite in="SourceGraphic"/>
        </filter>
        <filter id="Fill_18" x="250.217" y="0" width="64.531" height="68.792" filterUnits="userSpaceOnUse">
            <feOffset dx="2" dy="4" input="SourceAlpha"/>
            <feGaussianBlur stdDeviation="8" result="blur-6"/>
            <feFlood flood-opacity="0.102"/>
            <feComposite operator="in" in2="blur-6"/>
            <feComposite in="SourceGraphic"/>
        </filter>
        <filter id="Fill_30" x="260.844" y="20.707" width="48.59" height="48.17" filterUnits="userSpaceOnUse">
            <feOffset dx="2" dy="4" input="SourceAlpha"/>
            <feGaussianBlur stdDeviation="8" result="blur-7"/>
            <feFlood flood-opacity="0.102"/>
            <feComposite operator="in" in2="blur-7"/>
            <feComposite in="SourceGraphic"/>
        </filter>
        <filter id="Fill_32" x="260.844" y="20.739" width="48.59" height="48.105" filterUnits="userSpaceOnUse">
            <feOffset dx="2" dy="4" input="SourceAlpha"/>
            <feGaussianBlur stdDeviation="8" result="blur-8"/>
            <feFlood flood-opacity="0.102"/>
            <feComposite operator="in" in2="blur-8"/>
            <feComposite in="SourceGraphic"/>
        </filter>
        <clipPath id="clip-path-5">
            <path id="Clip_2-3" data-name="Clip 2" d="M0,0H11.664V8.415H0Z" transform="translate(0.116 0.059)" fill="none"/>
        </clipPath>
        <clipPath id="clip-path-6">
            <path id="Clip_7" data-name="Clip 7" d="M0,0H5.433V3.947H0Z" transform="translate(0 0.116)" fill="none"/>
        </clipPath>
        <clipPath id="clip-path-7">
            <path id="Clip_12" data-name="Clip 12" d="M0,0H5.283V4.2H0Z" transform="translate(0.057 0.057)" fill="none"/>
        </clipPath>
        <clipPath id="clip-path-8">
            <path id="Clip_17" data-name="Clip 17" d="M0,0H18.9V29.667H0Z" transform="translate(0.03 0.061)" fill="none"/>
        </clipPath>
        <clipPath id="clip-path-9">
            <path id="Clip_2-4" data-name="Clip 2" d="M0,0H32.675V28.573H0Z" transform="translate(0.182 0.057)" fill="none"/>
        </clipPath>
        <clipPath id="clip-path-10">
            <path id="Clip_11" data-name="Clip 11" d="M0,0H36.724V22.845H0Z" transform="translate(0 0.164)" fill="none"/>
        </clipPath>
        <filter id="Fill_178" x="25.133" y="187.133" width="71.119" height="57.6" filterUnits="userSpaceOnUse">
            <feOffset dx="2" dy="4" input="SourceAlpha"/>
            <feGaussianBlur stdDeviation="8" result="blur-9"/>
            <feFlood flood-opacity="0.102"/>
            <feComposite operator="in" in2="blur-9"/>
            <feComposite in="SourceGraphic"/>
        </filter>
        <filter id="Fill_198" x="60.21" y="187.133" width="71.119" height="57.6" filterUnits="userSpaceOnUse">
            <feOffset dx="2" dy="4" input="SourceAlpha"/>
            <feGaussianBlur stdDeviation="8" result="blur-10"/>
            <feFlood flood-opacity="0.102"/>
            <feComposite operator="in" in2="blur-10"/>
            <feComposite in="SourceGraphic"/>
        </filter>
        <filter id="Fill_296" x="34.699" y="111.933" width="95.035" height="101.6" filterUnits="userSpaceOnUse">
            <feOffset dx="2" dy="4" input="SourceAlpha"/>
            <feGaussianBlur stdDeviation="8" result="blur-11"/>
            <feFlood flood-opacity="0.102"/>
            <feComposite operator="in" in2="blur-11"/>
            <feComposite in="SourceGraphic"/>
        </filter>
        <filter id="Fill_298" x="73.762" y="117.533" width="77.497" height="77.6" filterUnits="userSpaceOnUse">
            <feOffset dx="2" dy="4" input="SourceAlpha"/>
            <feGaussianBlur stdDeviation="8" result="blur-12"/>
            <feFlood flood-opacity="0.102"/>
            <feComposite operator="in" in2="blur-12"/>
            <feComposite in="SourceGraphic"/>
        </filter>
        <filter id="Fill_300" x="31.51" y="112.733" width="68.727" height="96" filterUnits="userSpaceOnUse">
            <feOffset dx="2" dy="4" input="SourceAlpha"/>
            <feGaussianBlur stdDeviation="8" result="blur-13"/>
            <feFlood flood-opacity="0.102"/>
            <feComposite operator="in" in2="blur-13"/>
            <feComposite in="SourceGraphic"/>
        </filter>
        <clipPath id="clip-path-11">
            <path id="Clip_341" data-name="Clip 341" d="M0,0H22.671V46.905H0Z" transform="translate(0.096 0.295)" fill="none"/>
        </clipPath>
        <filter id="Fill_146" x="110.434" y="99.933" width="57.566" height="65.6" filterUnits="userSpaceOnUse">
            <feOffset dx="2" dy="4" input="SourceAlpha"/>
            <feGaussianBlur stdDeviation="8" result="blur-14"/>
            <feFlood flood-opacity="0.102"/>
            <feComposite operator="in" in2="blur-14"/>
            <feComposite in="SourceGraphic"/>
        </filter>
    </defs>
    <g id="Illus_5" data-name="Illus / 5" transform="translate(0 8.333)">
        <g id="Group_3" data-name="Group 3">
            <path id="Clip_2-5" data-name="Clip 2" d="M0,0H335V210H0Z" fill="none"/>
            <g id="Group_3-2" data-name="Group 3" clip-path="url(#clip-path)">
                <path id="Fill_1" data-name="Fill 1" d="M4.142,124.123s8.764-14.875,35.787-26.093c2.435-1.951,40.9-10.956,45.646-50.47C88.5,42.431,114.668,4.145,154.35,0c4.382,0,42.969,1.1,70.357,24.873,3.287,3.13,11.686,10.242,27.023,6.218,4.017-3.088,61.349-8.413,66.218,38.9,0,5.121,1.461,7.072-5.356,23.41-1.7,2.926-10.468,18.777,0,29.263,3.165,3.658,26.049,32.433,21.91,48.772-.974,4.145-10.712,27.312-53.559,33.408-13.877,1.219-176.013,10.974-238.092,0C26.986,196.22,2.317,175.906.856,155.441c-1.826-3.569-.73-23.148,3.287-31.318" fill="#f2f2f2"/>
            </g>
        </g>
        <g id="Phone" transform="translate(150 10)">
            <path id="Path-3" data-name="Path" d="M82.829,200l-68.068-.312A14.808,14.808,0,0,1,0,184.844L.724,14.722A14.807,14.807,0,0,1,15.62,0L83.688.312A14.807,14.807,0,0,1,98.45,15.156l-.724,170.122A14.8,14.8,0,0,1,82.829,200Z" fill="#8f5f43"/>
            <path id="Path-4" data-name="Path" d="M78.843.319,65.684.258a3.272,3.272,0,0,0-3.211,3.335L62.46,5.984A3.272,3.272,0,0,1,59.25,9.32L33.6,9.2a3.274,3.274,0,0,1-3.179-3.366l.012-2.391A3.282,3.282,0,0,0,27.249.08L22.62.055,11.105,0A10.372,10.372,0,0,0,.7,10.337L0,176.861a10.362,10.362,0,0,0,10.3,10.423l67.738.313a10.372,10.372,0,0,0,10.4-10.337l.7-166.524A10.356,10.356,0,0,0,78.843.319Z" transform="translate(4.651 5.426)" fill="#fff"/>
        </g>
        <g id="ui" transform="translate(169 75)">
            <g transform="matrix(1, 0, 0, 1, -169, -83.33)" filter="url(#Path)">
                <path id="Path-5" data-name="Path" d="M3.624,0H1.474A1.476,1.476,0,0,0,0,1.474v6.45A1.476,1.476,0,0,0,1.474,9.4h2.15A1.476,1.476,0,0,0,5.1,7.924V1.474A1.475,1.475,0,0,0,3.624,0Z" transform="translate(209.71 108.63)" fill="#390b12"/>
            </g>
            <g transform="matrix(1, 0, 0, 1, -169, -83.33)" filter="url(#Shape)">
                <path id="Shape-2" data-name="Shape" d="M42.432,44.294A1.751,1.751,0,1,0,39,43.606a34.887,34.887,0,0,1-3.992,11.236c-1.049,1.689-2.707,3.7-4.651,3.7s-3.6-2.013-4.651-3.7a34.909,34.909,0,0,1-3.992-11.236,1.751,1.751,0,1,0-3.434.688c1.48,7.38,3.967,12.785,7.033,15.584a30.36,30.36,0,0,1-16.42-51.4A30.133,30.133,0,0,1,25.312,0c-3.065,2.8-5.554,8.2-7.033,15.584a1.751,1.751,0,1,0,3.433.688A34.873,34.873,0,0,1,25.7,5.038c1.049-1.689,2.707-3.7,4.651-3.7s3.6,2.014,4.651,3.7A34.888,34.888,0,0,1,39,16.273a1.751,1.751,0,1,0,3.434-.688C40.954,8.2,38.466,2.8,35.4,0A30.36,30.36,0,0,1,51.82,51.4,30.127,30.127,0,0,1,35.4,59.879C38.465,57.079,40.954,51.674,42.432,44.294Z" transform="translate(169 83.39)" fill="#390b12"/>
            </g>
            <g transform="matrix(1, 0, 0, 1, -169, -83.33)" filter="url(#Path-2)">
                <path id="Path-6" data-name="Path" d="M3.624,0H0V1.474A1.476,1.476,0,0,0,1.474,2.948h2.15A1.474,1.474,0,0,0,3.624,0Z" transform="translate(196.81 115.08)" fill="#390b12"/>
            </g>
        </g>
        <g id="Dress" transform="translate(261 10)">
            <g id="Dress-2" data-name="Dress">
                <g id="Group_3-3" data-name="Group 3" transform="translate(13.579 0.479)">
                    <path id="Clip_2-6" data-name="Clip 2" d="M0,0H16.265V11.047H0Z" transform="translate(0.119 0.178)" fill="none"/>
                    <g id="Group_3-4" data-name="Group 3" clip-path="url(#clip-path-2)">
                        <path id="Fill_1-2" data-name="Fill 1" d="M0,.512,1.817,0A9.174,9.174,0,0,0,7.7,1.952,15.609,15.609,0,0,0,13.351.3l2.914.691s-4.4,11-8.133,9.994S0,.512,0,.512" transform="translate(0.119 0.178)" fill="#8f5f43"/>
                    </g>
                </g>
                <g id="Group_6" data-name="Group 6" transform="translate(11.217 0.479)">
                    <path id="Clip_5-2" data-name="Clip 5" d="M0,0H19.958V21.712H0Z" transform="translate(0.024 0.185)" fill="none"/>
                    <g id="Group_6-2" data-name="Group 6" clip-path="url(#clip-path-3)">
                        <g transform="matrix(1, 0, 0, 1, -272.22, -18.81)" filter="url(#Fill_4)">
                            <path id="Fill_4-2" data-name="Fill 4" d="M1.222,10.078a19.418,19.418,0,0,0,.393,3.746c.327.854.917,2.432.917,2.432l.72,5.456H16.742l.589-5.817a18.229,18.229,0,0,0,1.179-3.648V9.586q0-.309.03-.618c.137-1.406.807-6.7,1.419-7.651L15.868.307S13.533,7.822,9.408,6.945,4.409,0,4.409,0L0,1.293s2.2,6.945,1.222,8.786" transform="translate(272.24 19)" fill="#390b12"/>
                        </g>
                    </g>
                </g>
                <g id="Group_9" data-name="Group 9" transform="translate(0 21.865)">
                    <path id="Clip_8-2" data-name="Clip 8" d="M0,0H42.9V37.875H0Z" transform="translate(0 0.145)" fill="none"/>
                    <g id="Group_9-2" data-name="Group 9" clip-path="url(#clip-path-4)">
                        <g transform="matrix(1, 0, 0, 1, -261, -40.2)" filter="url(#Fill_7)">
                            <path id="Fill_7-2" data-name="Fill 7" d="M14.523,0H27.867s8.119,10.283,11.746,21.872S42.9,34.333,42.9,34.333,33.135,39.3,24.93,37.47,5.416,39.554,0,34.09C0,34.09,8.067,6.514,14.523,0" transform="translate(261 40.34)" fill="#390b12"/>
                        </g>
                    </g>
                </g>
                <g transform="matrix(1, 0, 0, 1, -261, -18.33)" filter="url(#Fill_18)">
                    <path id="Fill_18-2" data-name="Fill 18" d="M7.17,19.312C3.818,17.593,2.861,5.261.939,0L0,.283S2.156,7.258,1.2,9.107A20.011,20.011,0,0,0,1.58,12.87c.32.858.9,2.443.9,2.443l.7,5.479H16.373l.158-1.6c-1.514.616-6.428,1.621-9.361.116" transform="translate(272.22 20)" fill="#390b12"/>
                </g>
                <path id="Fill_20" data-name="Fill 20" d="M6.812,1.188A28.97,28.97,0,0,1,0,.674L.083.013A30.235,30.235,0,0,0,6.812.534,38.044,38.044,0,0,0,13.579,0l-.014.67a37.632,37.632,0,0,1-6.753.518" transform="translate(14.169 21.865)" fill="#fff"/>
                <path id="Fill_22" data-name="Fill 22" d="M4.723.818a.738.738,0,0,1-.093.36c-.165.007-.334.01-.505.01-.137,0-.271,0-.4,0-.059,0-.116,0-.172,0A11.319,11.319,0,0,1,.215.685.356.356,0,0,1,.009.272.33.33,0,0,1,.432.016,12.111,12.111,0,0,0,3.557.444c.056,0,.112,0,.169,0,.13,0,.263,0,.4,0,.169,0,.335,0,.5-.007a.724.724,0,0,1,.1.372" transform="translate(17.712 21.865)" fill="#745075"/>
                <path id="Fill_24" data-name="Fill 24" d="M4.562,1.179l0,0A13.925,13.925,0,0,1,.214.685.354.354,0,0,1,.009.274.338.338,0,0,1,.332,0a.351.351,0,0,1,.1.017A14.609,14.609,0,0,0,4.55.45a.481.481,0,0,1,.012.729" transform="translate(17.712 21.865)" fill="#fff"/>
                <path id="Fill_26" data-name="Fill 26" d="M2.261,1.241A1.459,1.459,0,0,1,0,1.251c.111,0,.183,0,.319,0a1.189,1.189,0,0,0,.81.285,1.174,1.174,0,0,0,.822-.291C2.584.55,1.13-.15.363.495.255.49.14.485.036.475A1.363,1.363,0,0,1,1.129,0c.9,0,1.476.674,1.131,1.241" transform="translate(20.073 21.865)" fill="#8f5f43"/>
                <path id="Fill_28" data-name="Fill 28" d="M.2.113A.087.087,0,0,1,.113.2.087.087,0,0,1,.027.113.087.087,0,0,1,.113.024.087.087,0,0,1,.2.113" transform="translate(21.732 22.346)" fill="#3c233d"/>
                <g transform="matrix(1, 0, 0, 1, -261, -18.33)" filter="url(#Fill_30)">
                    <path id="Fill_30-2" data-name="Fill 30" d="M.437.2H.153C.069.2,0,.16,0,.113S.069.028.153.028H.437C.522.028.59.066.59.113S.522.2.437.2" transform="translate(282.84 40.68)" fill="#390b12"/>
                </g>
                <g transform="matrix(1, 0, 0, 1, -261, -18.33)" filter="url(#Fill_32)">
                    <path id="Fill_32-2" data-name="Fill 32" d="M.583.061A.17.17,0,0,1,.43.125H0A.211.211,0,0,0,.134.166h.3C.519.166.59.128.59.081A.054.054,0,0,0,.583.061" transform="translate(282.84 40.68)" fill="#390b12"/>
                </g>
                <path id="Fill_34" data-name="Fill 34" d="M0,.19A1.382,1.382,0,0,1,1.751.459c.061.074-.032.185-.093.111L1.652.561A1.341,1.341,0,0,0,0,.19" transform="translate(20.664 21.865)" fill="#8f5f43"/>
                <path id="Fill_36" data-name="Fill 36" d="M0,.418A1.409,1.409,0,0,0,1.752.132c.061-.073-.033-.181-.094-.108L1.651.033A1.366,1.366,0,0,1,0,.418" transform="translate(20.664 23.053)" fill="#8f5f43"/>
            </g>
        </g>
        <g id="T-shirt" transform="translate(297 95)">
            <g id="Group_23" data-name="Group 23" transform="translate(0)">
                <g id="Group_3-5" data-name="Group 3" transform="translate(6.955 0.077)">
                    <path id="Clip_2-7" data-name="Clip 2" d="M0,0H11.664V8.415H0Z" transform="translate(0.116 0.059)" fill="none"/>
                    <g id="Group_3-6" data-name="Group 3" clip-path="url(#clip-path-5)">
                        <path id="Fill_1-3" data-name="Fill 1" d="M1.728,8.069,0,.841.814.434S5.848,1.522,9.924,0l1.739.63L10.046,8.415Z" transform="translate(0.116 0.059)" fill="#390b12"/>
                    </g>
                </g>
                <path id="Fill_4-3" data-name="Fill 4" d="M10.894.454l.76.223.01-.047L9.924,0C5.848,1.522.814.434.814.434L0,.841.026.95c1.452.207,6.587.8,10.868-.5" transform="translate(7.07 0.261)" fill="#8f5f43"/>
                <g id="Group_8" data-name="Group 8" transform="translate(0 10.168)">
                    <path id="Clip_7-2" data-name="Clip 7" d="M0,0H5.433V3.947H0Z" transform="translate(0 0.116)" fill="none"/>
                    <g id="Group_8-2" data-name="Group 8" clip-path="url(#clip-path-6)">
                        <path id="Fill_6" data-name="Fill 6" d="M3.025,0,.057.126s-.316.545.536,1.4S5.339,4.273,5.422,3.9A3.782,3.782,0,0,0,4.8,1.864C4.468,1.534,3.025,0,3.025,0" transform="translate(0 0.116)" fill="#390b12"/>
                    </g>
                </g>
                <path id="Fill_9" data-name="Fill 9" d="M0,7.491s4.764,1.995,5.364,3.774L6.02,8.309l.388-5.946L3.381,0Z" transform="translate(0.057 2.919)" fill="#8f5f43"/>
                <g id="Group_13" data-name="Group 13" transform="translate(20.455 9.759)">
                    <path id="Clip_12-2" data-name="Clip 12" d="M0,0H5.283V4.2H0Z" transform="translate(0.057 0.057)" fill="none"/>
                    <g id="Group_13-2" data-name="Group 13" clip-path="url(#clip-path-7)">
                        <path id="Fill_11" data-name="Fill 11" d="M5.279,0C5.445.491.805,4.515,0,4.185A7.3,7.3,0,0,1,.331,2.442C.627,1.536,3.776-.072,5.279,0" transform="translate(0.057 0.057)" fill="#390b12"/>
                    </g>
                </g>
                <path id="Fill_14" data-name="Fill 14" d="M2.359,0l3.45,7.621S.967,9.185.53,11.8L0,9.142V4.329Z" transform="translate(19.982 2.198)" fill="#8f5f43"/>
                <g id="Group_18" data-name="Group 18" transform="translate(3.409 0.214)">
                    <path id="Clip_17-2" data-name="Clip 17" d="M0,0H18.9V29.667H0Z" transform="translate(0.03 0.061)" fill="none"/>
                    <g id="Group_18-2" data-name="Group 18" clip-path="url(#clip-path-8)">
                        <path id="Fill_16" data-name="Fill 16" d="M0,2.645s2.673,6.229,2.673,7.792S1.664,24.877.845,28.545c0,0,10.964,2.3,17.02.315,0,0-1.977-11.9-1.322-17.795.036-.324,2.359-9.142,2.359-9.142L13.592,0S12.384,4.533,8.757,4.533c-2.9,0-4.425-4.055-4.425-4.055Z" transform="translate(0.03 0.061)" fill="#390b12"/>
                    </g>
                </g>
                <path id="Fill_19" data-name="Fill 19" d="M3.631,18.7c.523-2.156,5.546-1.321,1.864-5C2.453,10.659,2.243,2.681,2.262,0L0,1.132S2.673,7.361,2.673,8.924,1.664,23.364.845,27.032a62.049,62.049,0,0,0,8.216,1.051,4.4,4.4,0,0,0-.7-3.267C6.663,22.5,3.109,20.861,3.631,18.7" transform="translate(3.439 1.787)" fill="#390b12"/>
                <path id="Fill_21" data-name="Fill 21" d="M4.98,5.16c2.666,0,4.507-3.241,5.3-4.959L9.722,0S8.491,4.364,4.864,4.364C1.965,4.364.613.434.613.434L0,.74C.93,2.322,2.89,5.16,4.98,5.16" transform="translate(7.272 0.261)" fill="#8f5f43"/>
            </g>
        </g>
        <g id="Group_17" data-name="Group 17" transform="translate(257 141)">
            <g id="Group_3-7" data-name="Group 3" transform="translate(7.08 0.297)">
                <path id="Clip_2-8" data-name="Clip 2" d="M0,0H32.675V28.573H0Z" transform="translate(0.182 0.057)" fill="none"/>
                <g id="Group_3-8" data-name="Group 3" clip-path="url(#clip-path-9)">
                    <path id="Fill_1-4" data-name="Fill 1" d="M32.655,13.671,28.269,28.559l0,.014-.935-.563-5.908-3.55-5.034-3.023L0,11.585v-.012L10.428,1.465l.06-.057.927-.9.064-.06.141-.138a.736.736,0,0,1,.321-.184C12.775-.1,15.7-.6,23.961,4.814c5.9,3.9,9,7.491,8.694,8.857" transform="translate(0.182 0.057)" fill="#390b12"/>
                </g>
            </g>
            <path id="Fill_4-4" data-name="Fill 4" d="M8.886,4.483A32.927,32.927,0,0,0,0,0C2.472,2.376,4.961,5.241,6.038,7.873c2.029,4.955-2.62,10.912-4.874,13.4l12.657,7.806L17.58,13.34c.3-1.367-2.789-4.953-8.694-8.857" transform="translate(22.336 0.684)" fill="#390b12"/>
            <path id="Fill_6-2" data-name="Fill 6" d="M36.091,17.887c-.954-1.1-5.832-5.024-13.805-9.961S8.184-.211,7.214.011L0,2.717,36.656,25.428Z" transform="translate(0.069 11.909)" fill="#8f5f43"/>
            <path id="Fill_8" data-name="Fill 8" d="M8.661,6.682C8.71,5.99,5.32,3.5,0,0A53.061,53.061,0,0,1,3.615,5.6a21.536,21.536,0,0,1,1.777,6.245l3.835,2.374Z" transform="translate(27.498 23.114)" fill="#8f5f43"/>
            <g id="Group_12" data-name="Group 12" transform="translate(0 14.456)">
                <path id="Clip_11-2" data-name="Clip 11" d="M0,0H36.724V22.845H0Z" transform="translate(0 0.164)" fill="none"/>
                <g id="Group_12-2" data-name="Group 12" clip-path="url(#clip-path-10)">
                    <path id="Fill_10" data-name="Fill 10" d="M36.722,22.735c-.285.882-9.093-3.655-19.221-9.924S-.72.528.051.014C.463-.262,9.141,3.686,19.269,9.956S36.891,22.209,36.722,22.735" transform="translate(0 0.164)" fill="#390b12"/>
                </g>
            </g>
            <path id="Fill_13" data-name="Fill 13" d="M20.9,14.251a.04.04,0,0,1-.028-.014c-.2-.2-.422-.408-.648-.616a.027.027,0,0,1-.013-.021.04.04,0,0,1,.013-.032.043.043,0,0,1,.029-.013.024.024,0,0,1,.02.009c.2.185.416.388.655.619a.04.04,0,0,1,0,.053A.032.032,0,0,1,20.9,14.251Zm-1.313-1.22a.029.029,0,0,1-.022-.014l-.283-.249-.017-.015-.372-.327a.043.043,0,0,1,0-.057.033.033,0,0,1,.026-.012.04.04,0,0,1,.028.012l.077.067c.2.173.4.352.6.528a.027.027,0,0,1,.013.022.034.034,0,0,1-.013.028A.03.03,0,0,1,19.589,13.03Zm-1.352-1.183a.026.026,0,0,1-.022-.011l-.349-.291-.338-.282a.03.03,0,0,1-.017-.02.04.04,0,0,1,.009-.033.037.037,0,0,1,.053,0c.171.138.337.278.5.414l.189.159a.037.037,0,0,1,.017.025.04.04,0,0,1-.01.031A.043.043,0,0,1,18.238,11.848Zm-1.381-1.139a.037.037,0,0,1-.017,0l-.008,0c-.146-.119-.293-.237-.441-.354l-.257-.205a.037.037,0,0,1-.018-.029.029.029,0,0,1,.011-.025.034.034,0,0,1,.028-.015.029.029,0,0,1,.021.009c.246.187.483.379.7.559a.033.033,0,0,1,.012.023.04.04,0,0,1-.009.031A.032.032,0,0,1,16.857,10.708ZM15.448,9.6a.037.037,0,0,1-.024-.011c-.25-.193-.476-.368-.712-.545a.029.029,0,0,1-.014-.02.038.038,0,0,1,.007-.029.036.036,0,0,1,.032-.016.057.057,0,0,1,.024.006l.113.086c.206.157.4.305.6.459a.037.037,0,0,1,.011.053A.049.049,0,0,1,15.448,9.6Zm-1.43-1.084a.035.035,0,0,1-.017,0l-.007,0-.2-.146c-.173-.127-.347-.254-.523-.382a.041.041,0,0,1-.007-.057.042.042,0,0,1,.032-.014.034.034,0,0,1,.021.007l.05.036c.233.169.452.327.673.491a.046.046,0,0,1,.011.057A.044.044,0,0,1,14.018,8.517ZM12.567,7.465a.038.038,0,0,1-.022-.007L12.179,7.2l-.366-.258a.031.031,0,0,1-.017-.02.043.043,0,0,1,.006-.033.04.04,0,0,1,.032-.016.047.047,0,0,1,.021.005l.3.211c.147.1.29.205.433.305a.033.033,0,0,1,.015.022.045.045,0,0,1-.008.035A.045.045,0,0,1,12.567,7.465ZM11.093,6.439a.046.046,0,0,1-.016,0l0,0c-.213-.146-.449-.306-.743-.5a.033.033,0,0,1-.016-.023.038.038,0,0,1,.008-.031.028.028,0,0,1,.028-.017.043.043,0,0,1,.022.006l.093.063c.213.143.433.291.65.44a.042.042,0,0,1,.016.026.034.034,0,0,1-.005.027A.042.042,0,0,1,11.093,6.439Zm-1.49-1a.051.051,0,0,1-.022-.007c-.237-.156-.491-.323-.751-.489a.033.033,0,0,1-.016-.023.043.043,0,0,1,0-.029.036.036,0,0,1,.032-.017.04.04,0,0,1,.021.006c.269.17.515.33.751.489a.039.039,0,0,1,.014.053A.052.052,0,0,1,9.6,5.44ZM8.1,4.468a.023.023,0,0,1-.018-.007c-.191-.117-.385-.238-.573-.355l-.093-.058L7.317,3.99A.041.041,0,0,1,7.3,3.964a.036.036,0,0,1,0-.027.043.043,0,0,1,.034-.018.042.042,0,0,1,.023.008l.007,0s0,0,.007,0c.247.157.5.311.738.46l.006,0a.046.046,0,0,1,.014.057A.051.051,0,0,1,8.1,4.468ZM6.57,3.529a.02.02,0,0,1-.018-.007l-.481-.287-.29-.173a.031.031,0,0,1-.018-.019.036.036,0,0,1,0-.03A.04.04,0,0,1,5.8,2.993a.039.039,0,0,1,.019,0l.28.167.492.294a.038.038,0,0,1,.014.049A.039.039,0,0,1,6.57,3.529ZM5.023,2.62a.032.032,0,0,1-.018,0c-.268-.157-.534-.3-.782-.439a.042.042,0,0,1-.014-.053A.038.038,0,0,1,4.241,2.1a.034.034,0,0,1,.018.005c.175.095.353.2.525.292l.261.147a.037.037,0,0,1,.017.024.046.046,0,0,1-.039.047ZM3.459,1.752a.03.03,0,0,1-.017,0c-.275-.148-.545-.289-.8-.42a.039.039,0,0,1-.014-.053.038.038,0,0,1,.032-.019.032.032,0,0,1,.017.005l.456.24.009,0,.019.01.308.162a.041.041,0,0,1,.022.026.034.034,0,0,1,0,.027A.049.049,0,0,1,3.459,1.752ZM1.866.927A.048.048,0,0,1,1.844.921C1.57.783,1.3.652,1.04.531a.037.037,0,0,1-.017-.05A.035.035,0,0,1,1.055.459a.039.039,0,0,1,.017,0c.248.114.5.238.806.39A.041.041,0,0,1,1.9.906.045.045,0,0,1,1.866.927Z" transform="translate(18.677 0.8)" fill="#4a6792"/>
            <path id="Fill_15" data-name="Fill 15" d="M21.214,14.383a.077.077,0,0,1-.026-.006c-.225-.217-.445-.426-.654-.62a.04.04,0,0,1-.011-.028.035.035,0,0,1,.011-.025.039.039,0,0,1,.054,0c.241.222.474.445.651.616a.047.047,0,0,1,0,.057l-.011,0A.065.065,0,0,1,21.214,14.383ZM19.9,13.162a.06.06,0,0,1-.023-.005l0,0c-.217-.2-.45-.4-.67-.595a.036.036,0,0,1,0-.053.037.037,0,0,1,.03-.015.036.036,0,0,1,.022.007c.163.142.325.286.485.428l.005,0,.183.162a.045.045,0,0,1,0,.057A.041.041,0,0,1,19.9,13.162Zm-1.352-1.179a.03.03,0,0,1-.025-.007c-.222-.188-.45-.38-.69-.573a.041.041,0,0,1,0-.057.044.044,0,0,1,.032-.013.034.034,0,0,1,.02.006c.229.194.461.388.69.577a.044.044,0,0,1,.013.031.03.03,0,0,1-.009.022A.032.032,0,0,1,18.549,11.983Zm-1.384-1.139a.028.028,0,0,1-.022-.011c-.222-.178-.459-.368-.7-.556a.044.044,0,0,1,0-.057.045.045,0,0,1,.032-.013.034.034,0,0,1,.021.006l.3.237.005.005h0c.134.107.268.214.4.322a.033.033,0,0,1,.016.023.038.038,0,0,1-.008.031l-.007,0A.049.049,0,0,1,17.165,10.843ZM15.755,9.731a.048.048,0,0,1-.021-.006c-.2-.156-.423-.323-.715-.542a.037.037,0,0,1,0-.057.032.032,0,0,1,.027-.015.028.028,0,0,1,.023.012c.293.219.514.386.716.542a.041.041,0,0,1,.007.052A.033.033,0,0,1,15.755,9.731Zm-1.43-1.079c-.006,0-.017,0-.021-.007-.241-.177-.481-.354-.725-.531a.033.033,0,0,1-.016-.023.037.037,0,0,1,.008-.03.032.032,0,0,1,.028-.016.042.042,0,0,1,.025.009l.36.264,0,0h0l.36.264a.034.034,0,0,1,.013.023.039.039,0,0,1-.009.03C14.351,8.648,14.336,8.652,14.325,8.652ZM12.875,7.6a.07.07,0,0,1-.025,0c-.235-.17-.482-.344-.733-.517a.038.038,0,0,1-.007-.052.036.036,0,0,1,.031-.018.034.034,0,0,1,.023.01l.229.16c.167.116.338.235.5.354a.039.039,0,0,1,.011.053A.03.03,0,0,1,12.875,7.6ZM11.406,6.574c-.011,0-.018,0-.022-.007-.145-.1-.289-.193-.433-.29l-.009-.006-.3-.2a.046.046,0,0,1-.018-.031.041.041,0,0,1,.038-.042A.03.03,0,0,1,10.679,6c.237.159.492.33.748.506a.03.03,0,0,1,.013.02.041.041,0,0,1-.035.047Zm-1.49-1a.026.026,0,0,1-.021-.007c-.164-.108-.328-.215-.491-.32l-.005,0L9.143,5.08a.035.035,0,0,1-.018-.022.04.04,0,0,1,0-.031.045.045,0,0,1,.034-.018.027.027,0,0,1,.019.008c.2.127.4.254.6.388l.153.1a.041.041,0,0,1,.014.027.034.034,0,0,1-.008.026A.031.031,0,0,1,9.915,5.575Zm-1.508-.97A.044.044,0,0,1,8.386,4.6c-.257-.164-.509-.324-.761-.474A.04.04,0,0,1,7.607,4.1a.033.033,0,0,1,.007-.027.032.032,0,0,1,.03-.018.057.057,0,0,1,.021,0c.264.162.522.325.761.478a.028.028,0,0,1,.017.019.032.032,0,0,1-.007.029A.03.03,0,0,1,8.407,4.605ZM6.881,3.664a.038.038,0,0,1-.022-.007l-.125-.074c-.221-.131-.434-.258-.646-.382a.04.04,0,0,1-.014-.053.045.045,0,0,1,.036-.019.046.046,0,0,1,.021.005l.1.057c.219.13.446.264.672.4a.041.041,0,0,1,.01.057A.039.039,0,0,1,6.881,3.664Zm-1.546-.91a.044.044,0,0,1-.022,0l-.522-.3,0,0-.252-.143c-.021-.007-.024-.033-.017-.054a.034.034,0,0,1,.031-.016.043.043,0,0,1,.022.006l.128.071c.214.119.435.241.654.367a.038.038,0,0,1-.017.071ZM3.763,1.883a.051.051,0,0,1-.018,0c-.242-.131-.522-.281-.793-.418a.031.031,0,0,1-.017-.019.038.038,0,0,1,0-.031A.033.033,0,0,1,2.97,1.39a.035.035,0,0,1,.018,0c.251.128.519.268.8.418a.043.043,0,0,1,.013.053C3.791,1.88,3.781,1.883,3.763,1.883ZM2.17,1.058H2.155L1.893.93C1.7.837,1.526.75,1.345.666a.038.038,0,0,1-.018-.05A.043.043,0,0,1,1.366.592l.015,0L1.453.63c.239.116.487.236.735.362a.027.027,0,0,1,.018.014.04.04,0,0,1,0,.032A.031.031,0,0,1,2.17,1.058ZM.557.3A.058.058,0,0,1,.535.291L.474.264C.349.211.162.13,0,.057L.06,0C.24.08.478.186.566.223A.039.039,0,0,1,.594.267.036.036,0,0,1,.557.3Z" transform="translate(17.689 1.762)" fill="#4a6792"/>
        </g>
        <g id="Women" transform="translate(28 90)">
            <g transform="matrix(1, 0, 0, 1, -28, -98.33)" filter="url(#Fill_178)">
                <path id="Fill_178-2" data-name="Fill 178" d="M19.491,0S1.407,4.819.682,5.065c-1.089.369-.906,4.212.789,4.152.8-.028,13.89.469,15.544.37a35.184,35.184,0,0,0,6.1-1.792Z" transform="translate(47.13 207.13)" fill="#390b12"/>
            </g>
            <path id="Fill_180" data-name="Fill 180" d="M2.351,3.2a13.321,13.321,0,0,0-.9-1.72A16.215,16.215,0,0,0,0,.006,3.5,3.5,0,0,1,1.746,1.346a2.368,2.368,0,0,1,.6,1.854" transform="translate(28.699 112)" fill="#1a2e35"/>
            <path id="Fill_182" data-name="Fill 182" d="M1.569,3.2c-.08.014-.244-.777-.678-1.652S-.054.061,0,0a3.136,3.136,0,0,1,1.13,1.418A3.238,3.238,0,0,1,1.569,3.2" transform="translate(31.091 111.2)" fill="#1a2e35"/>
            <path id="Fill_184" data-name="Fill 184" d="M1.47,3.2A9.524,9.524,0,0,0,1.03,1.5,10.71,10.71,0,0,0,0,.005a2.614,2.614,0,0,1,1.319,1.4A2.109,2.109,0,0,1,1.47,3.2" transform="translate(33.483 111.2)" fill="#1a2e35"/>
            <path id="Fill_186" data-name="Fill 186" d="M.19,4.506A3.713,3.713,0,0,1,0,3.063,7.425,7.425,0,0,1,.179,1.481a7.152,7.152,0,0,1,.263-.9A1.1,1.1,0,0,1,.726.106a.442.442,0,0,1,.608.033.894.894,0,0,1,.236.548,4.154,4.154,0,0,1,.023.513,4.656,4.656,0,0,1-.109.949A6.075,6.075,0,0,1,.939,3.631,3.867,3.867,0,0,1,.144,4.8C.1,4.768.4,4.316.754,3.525a6.8,6.8,0,0,0,.464-1.442A4.622,4.622,0,0,0,1.3,1.2C1.3.9,1.3.527,1.14.384A.161.161,0,0,0,.906.363.833.833,0,0,0,.712.7a7.632,7.632,0,0,0-.268.855A8.461,8.461,0,0,0,.209,3.071C.157,3.949.238,4.5.19,4.506" transform="translate(34.28 107.2)" fill="#1a2e35"/>
            <path id="Fill_188" data-name="Fill 188" d="M0,.154A2.378,2.378,0,0,1,1.028,0,4.958,4.958,0,0,1,2.159.129,2.613,2.613,0,0,1,2.81.353a.615.615,0,0,1,.36.677.773.773,0,0,1-.574.529,1.554,1.554,0,0,1-.715,0A2.826,2.826,0,0,1,.846,1.083,2.7,2.7,0,0,1,.1.405,7.038,7.038,0,0,1,.954.94a2.943,2.943,0,0,0,.977.394,1.355,1.355,0,0,0,.591-.007A.524.524,0,0,0,2.91.973.376.376,0,0,0,2.673.56,2.529,2.529,0,0,0,2.1.35,5.709,5.709,0,0,0,1.022.176C.4.135.007.194,0,.154" transform="translate(34.28 112)" fill="#1a2e35"/>
            <path id="Fill_190" data-name="Fill 190" d="M1.433,3.2a9.4,9.4,0,0,0-.41-1.708A10.106,10.106,0,0,0,0,.008,2.313,2.313,0,0,1,1.345,1.371,2.016,2.016,0,0,1,1.433,3.2" transform="translate(27.105 112.8)" fill="#1a2e35"/>
            <path id="Fill_192" data-name="Fill 192" d="M19.133,0a3.694,3.694,0,0,1-.69.326,15.231,15.231,0,0,1-1.984.618A28.166,28.166,0,0,1,9.65,1.6c-2.672-.03-5.08-.152-6.827-.222L.756,1.266A3.683,3.683,0,0,1,0,1.184a3.709,3.709,0,0,1,.76-.035l2.069.015L9.652,1.3a31.746,31.746,0,0,0,6.76-.555C18.117.39,19.112-.051,19.133,0" transform="translate(21.524 116.8)" fill="#1a2e35"/>
            <path id="Fill_194" data-name="Fill 194" d="M8.769,1.547C8.744,1.589,8.25,1.3,7.415.929A6.253,6.253,0,0,0,4,.357a5.4,5.4,0,0,0-2.954,1.77A10.6,10.6,0,0,1,0,3.2,5.646,5.646,0,0,1,.886,1.982,7.194,7.194,0,0,1,2.084.853,4.28,4.28,0,0,1,3.95.057,5.934,5.934,0,0,1,7.506.735a4.8,4.8,0,0,1,1.263.813" transform="translate(32.685 115.2)" fill="#1a2e35"/>
            <path id="Fill_196" data-name="Fill 196" d="M.87,4.8c-.035-.024.128-.281.278-.734a3.758,3.758,0,0,0,.139-1.824A3.728,3.728,0,0,0,.518.587C.219.218-.022.038,0,0S.3.1.653.462a3.366,3.366,0,0,1,.888,1.731,3.4,3.4,0,0,1-.224,1.94c-.2.462-.426.685-.449.666" transform="translate(22.322 112.8)" fill="#1a2e35"/>
            <g transform="matrix(1, 0, 0, 1, -28, -98.33)" filter="url(#Fill_198)">
                <path id="Fill_198-2" data-name="Fill 198" d="M3.158,0s18.31,2.821,19.051,2.988c1.113.252,1.4,4.238-.267,4.378C21.153,7.432,8.386,9.5,6.754,9.6S0,8.33,0,8.33Z" transform="translate(82.21 207.13)" fill="#390b12"/>
            </g>
            <path id="Fill_200" data-name="Fill 200" d="M.069,4A19.467,19.467,0,0,1,.592,1.889,18.262,18.262,0,0,1,1.59,0,3.282,3.282,0,0,0,.332,1.765,3.747,3.747,0,0,0,.069,4" transform="translate(65.371 111.2)" fill="#1a2e35"/>
            <path id="Fill_202" data-name="Fill 202" d="M.065,3.2c.1,0,.2-.762.62-1.638S1.669.05,1.586,0A3.147,3.147,0,0,0,.355,1.472,2.339,2.339,0,0,0,.065,3.2" transform="translate(62.979 111.2)" fill="#1a2e35"/>
            <path id="Fill_204" data-name="Fill 204" d="M.148,4c.06-.018-.058-.966.128-2.078A17.874,17.874,0,0,1,.793,0,3.309,3.309,0,0,0,.082,1.84,4.561,4.561,0,0,0,.148,4" transform="translate(61.385 110.4)" fill="#1a2e35"/>
            <path id="Fill_206" data-name="Fill 206" d="M1.526,3.754A3.234,3.234,0,0,0,1.553,2.5a6.354,6.354,0,0,0-.3-1.328A6.032,6.032,0,0,0,.947.437.917.917,0,0,0,.662.063a.379.379,0,0,0-.513.1A.784.784,0,0,0,0,.653a3.509,3.509,0,0,0,.028.439,3.978,3.978,0,0,0,.181.8,5.112,5.112,0,0,0,.6,1.2A3.222,3.222,0,0,0,1.592,4c.032-.031-.262-.383-.635-1.017A5.7,5.7,0,0,1,.429,1.8a3.968,3.968,0,0,1-.155-.746C.253.8.215.486.337.346.4.272.466.258.534.3a.7.7,0,0,1,.2.267,6.434,6.434,0,0,1,.307.7,7.179,7.179,0,0,1,.339,1.265c.126.743.108,1.22.15,1.221" transform="translate(59.79 108)" fill="#1a2e35"/>
            <path id="Fill_208" data-name="Fill 208" d="M3.189.09A1.909,1.909,0,0,0,2.11.037,4.057,4.057,0,0,0,.963.382a2.43,2.43,0,0,0-.641.4.954.954,0,0,0-.281.971A.871.871,0,0,0,.7,2.383a1.26,1.26,0,0,0,.736-.11,2.878,2.878,0,0,0,1-.8A3.594,3.594,0,0,0,3.114.445a7.826,7.826,0,0,0-.8.852,2.869,2.869,0,0,1-.954.68,1.083,1.083,0,0,1-.61.079A.592.592,0,0,1,.3,1.637a.579.579,0,0,1,.189-.6A2.418,2.418,0,0,1,1.057.671,4.82,4.82,0,0,1,2.14.273C2.777.124,3.187.145,3.189.09" transform="translate(58.196 111.2)" fill="#1a2e35"/>
            <path id="Fill_210" data-name="Fill 210" d="M.17,3.2A13.678,13.678,0,0,1,.285,1.526,11.813,11.813,0,0,1,.793.006C.766-.063.265.455.076,1.446A2.852,2.852,0,0,0,.17,3.2" transform="translate(67.762 112)" fill="#1a2e35"/>
            <path id="Fill_212" data-name="Fill 212" d="M0,.956a4.113,4.113,0,0,0,.723.205,17.614,17.614,0,0,0,2.043.321A33.018,33.018,0,0,0,9.6,1.338c2.65-.3,5.026-.646,6.751-.882l2.039-.3a4.242,4.242,0,0,0,.741-.146,4.34,4.34,0,0,0-.759.047L16.322.277l-6.757.808A37.23,37.23,0,0,1,2.788,1.3C1.054,1.179.014.907,0,.956" transform="translate(55.804 116)" fill="#1a2e35"/>
            <path id="Fill_214" data-name="Fill 214" d="M0,1.864c.029.035.479-.28,1.252-.7A6.556,6.556,0,0,1,4.529.278a5.538,5.538,0,0,1,3.1,1.27,10.324,10.324,0,0,0,1.143.85,5.256,5.256,0,0,0-1.006-1,7.024,7.024,0,0,0-1.3-.884A4.486,4.486,0,0,0,4.541,0,6.21,6.21,0,0,0,1.142,1,4.653,4.653,0,0,0,0,1.864" transform="translate(55.007 116)" fill="#1a2e35"/>
            <path id="Fill_216" data-name="Fill 216" d="M40.9,8.63l.432-.875a2.5,2.5,0,0,0-.251-.88c-.209-.369-.954-.339-.954-.339l.112-.245a1.1,1.1,0,0,0-.092-1.077c-.034-.048-.069-.1-.108-.145a1.774,1.774,0,0,0-.942-.482s.423-.823.235-1.166a1.756,1.756,0,0,0-1.809-.72,26,26,0,0,0-3.292,1.582.771.771,0,0,1-1.1-.408A11.292,11.292,0,0,0,31.523.826,1.664,1.664,0,0,0,29.54.1a.364.364,0,0,0-.179.527,19.573,19.573,0,0,1,1.155,2.123c.207.558.439,4.779.439,4.779l-1.146,2.2L18.225,28.175S.754,16.3.823,16L0,29.619l13.169,8.82a9.2,9.2,0,0,0,7.764,1.175A9.3,9.3,0,0,0,26.79,34.4L35.651,15l1.075-1.586,4.174-2.7s.681-1.21.533-1.564A1.141,1.141,0,0,0,40.9,8.63Z" transform="translate(72.545 24.8)" fill="#ffbf9d"/>
            <path id="Fill_218" data-name="Fill 218" d="M4.783,1.224a.429.429,0,0,1-.077.073l-.234.193L3.6,2.183,2.3,3.2c-.249.187-.493.4-.787.585a1.123,1.123,0,0,1-1.035.139.785.785,0,0,1-.384-.4A1.168,1.168,0,0,1,0,2.988a1.552,1.552,0,0,1,.413-.91,5.955,5.955,0,0,1,.65-.609l.587-.5L2.506.252l.235-.19A.443.443,0,0,1,2.827,0a.405.405,0,0,1-.073.077L2.53.283,1.7,1.025l-.579.508a6.054,6.054,0,0,0-.634.607A1.462,1.462,0,0,0,.1,2.993a.846.846,0,0,0,.418.84.822.822,0,0,0,.488.049A1.352,1.352,0,0,0,1.463,3.7c.281-.173.532-.389.781-.574l1.313-1,.891-.668.245-.177a.414.414,0,0,1,.09-.056" transform="translate(106.825 28)" fill="#ff9a6c"/>
            <path id="Fill_220" data-name="Fill 220" d="M4.783,0a1.18,1.18,0,0,1-.2.175c-.132.106-.327.255-.57.435-.487.359-1.173.836-1.954,1.322a5.819,5.819,0,0,1-.586.337,1.186,1.186,0,0,1-.624.125.987.987,0,0,1-.807-.686A1.058,1.058,0,0,1,.1.962.838.838,0,0,1,.206.792C.237.757.254.741.257.744S.2.823.137.981a1.051,1.051,0,0,0-.021.7.908.908,0,0,0,.744.606,1.108,1.108,0,0,0,.571-.122A5.992,5.992,0,0,0,2,1.833C2.784,1.348,3.474.884,3.971.543l.588-.4A1.189,1.189,0,0,1,4.783,0" transform="translate(108.42 31.2)" fill="#ff9a6c"/>
            <path id="Fill_222" data-name="Fill 222" d="M3.986,0A.894.894,0,0,1,3.8.118L3.271.4C2.824.635,2.2.951,1.517,1.3A5.042,5.042,0,0,1,1,1.533a.934.934,0,0,1-.534.045.588.588,0,0,1-.4-.3A.738.738,0,0,1,.011.829.961.961,0,0,1,.321.286.576.576,0,0,1,.5.156a2.171,2.171,0,0,1-.155.16A.975.975,0,0,0,.08.84a.665.665,0,0,0,.064.393.5.5,0,0,0,.345.251.854.854,0,0,0,.483-.049,5.051,5.051,0,0,0,.5-.235C2.162.856,2.787.55,3.242.332l.54-.252a.89.89,0,0,1,.2-.08" transform="translate(109.217 32.8)" fill="#ff9a6c"/>
            <path id="Fill_224" data-name="Fill 224" d="M3.986.269a5.923,5.923,0,0,1-.708.138C2.837.482,2.228.58,1.553.682L1.06.757A2.727,2.727,0,0,1,.583.8.835.835,0,0,1,.162.686.306.306,0,0,1,0,.417.481.481,0,0,1,.272.062.409.409,0,0,1,.454,0C.459.008.391.027.3.088a.445.445,0,0,0-.219.33A.258.258,0,0,0,.221.632.745.745,0,0,0,.587.721,2.645,2.645,0,0,0,1.038.675L1.53.6C2.205.5,2.817.408,3.262.348A6.147,6.147,0,0,1,3.986.269" transform="translate(110.014 34.4)" fill="#ff9a6c"/>
            <path id="Fill_226" data-name="Fill 226" d="M2.391.507a3.38,3.38,0,0,0-1.2-.224A3.725,3.725,0,0,0,0,.718,1.7,1.7,0,0,1,1.183.084,1.48,1.48,0,0,1,2.391.507" transform="translate(106.825 33.6)" fill="#ff9a6c"/>
            <path id="Fill_228" data-name="Fill 228" d="M4.744,30.145S-1.163,25.1.206,21.62s5.158-5.2,7.022-11.522c1.49-5.051,10.364-14.78,20.879-7.467,0,0,3.559-.569,5.584,1.074s2.512,4.921,3.371,8.707c1.325,5.833,2.05,10.318-.514,13.169s-3.5,3.622-3.362,6.866c.179,4.234,2.022,3.667.432,6.754L24.8,36.283l-.091-2.46-.893,2.315-5.132-1.87Z" transform="translate(41.455)" fill="#272422"/>
            <path id="Fill_230" data-name="Fill 230" d="M14.559,0c-.564,1.309-.1,2.821.434,4.142a7.508,7.508,0,0,1,.885,4.122c-.48,2.484-3.53,3.868-3.868,6.375-.181,1.344.485,2.71.228,4.042a4.631,4.631,0,0,1-2.443,2.9c-1.128.648-2.379,1.078-3.44,1.833,0,0-2.335,1.935-6.355-1.255" transform="translate(61.385 8.8)" fill="#272422"/>
            <path id="Fill_232" data-name="Fill 232" d="M11.3.058a2.189,2.189,0,0,0-2.58,1.461L.18,29.988c-1.1,3.329,3.067,6.884,6.625,8.043,3.593,1.17,4.32-.545,5.462-3.68,1.909-5.237,2.591-7.214,2.583-7.184,0,0,4.767.822,7.745-4.758a67.036,67.036,0,0,0,4.116-11.666c1-3.621.172-8.785-3.473-9.639Z" transform="translate(47.832 5.6)" fill="#ffbf9d"/>
            <path id="Fill_234" data-name="Fill 234" d="M1.562,1.032a.789.789,0,0,1-.99.533.807.807,0,0,1-.54-1A.79.79,0,0,1,1.021.035a.808.808,0,0,1,.541,1" transform="translate(70.154 18.4)" fill="#1a2e35"/>
            <path id="Fill_236" data-name="Fill 236" d="M3.156,1.595c-.135.073-.587-.62-1.45-.932S.06.572,0,.427C-.026.361.141.2.486.09A2.222,2.222,0,0,1,1.894.143,2.258,2.258,0,0,1,3,1.022c.194.31.219.542.153.573" transform="translate(69.357 16.8)" fill="#1a2e35"/>
            <path id="Fill_238" data-name="Fill 238" d="M1.562,1.032a.79.79,0,0,1-.99.533.806.806,0,0,1-.54-1A.79.79,0,0,1,1.022.035a.807.807,0,0,1,.54,1" transform="translate(62.182 16)" fill="#1a2e35"/>
            <path id="Fill_240" data-name="Fill 240" d="M3.157,1.595c-.136.073-.588-.62-1.451-.932S.06.572,0,.427C-.026.361.139.2.486.09A2.222,2.222,0,0,1,1.894.143,2.253,2.253,0,0,1,3,1.022c.194.31.219.542.154.573" transform="translate(61.385 14.4)" fill="#1a2e35"/>
            <path id="Fill_242" data-name="Fill 242" d="M0,6.679a6.181,6.181,0,0,1,1.439.214c.22.049.437.075.523-.05A1.026,1.026,0,0,0,2.039,6.2q-.032-.828-.066-1.736A26.236,26.236,0,0,1,2.033,0a26.438,26.438,0,0,1,.321,4.459q.019.909.036,1.736a1.174,1.174,0,0,1-.18.825.583.583,0,0,1-.458.179,1.62,1.62,0,0,1-.379-.071A5.948,5.948,0,0,1,0,6.679" transform="translate(65.371 16)" fill="#1a2e35"/>
            <path id="Fill_244" data-name="Fill 244" d="M7.175,4.971A15.859,15.859,0,0,1,0,0S.583,4.863,6.686,6.4Z" transform="translate(55.804 28)" fill="#ff9a6c"/>
            <path id="Fill_246" data-name="Fill 246" d="M2.357.923a1.379,1.379,0,0,0-1-.888A1.263,1.263,0,0,0,.381.19a.794.794,0,0,0-.357.839A.927.927,0,0,0,.889,1.6a2.915,2.915,0,0,0,1.117-.23.847.847,0,0,0,.281-.142A.255.255,0,0,0,2.38.957" transform="translate(62.182 24)" fill="#ff9a6c"/>
            <path id="Fill_248" data-name="Fill 248" d="M3.974.74C3.846.9,3.013.7,1.987.648S.1.684.006.514C-.035.433.148.294.517.175A4.443,4.443,0,0,1,2.057.008a4.217,4.217,0,0,1,1.484.34c.34.159.49.317.433.392" transform="translate(61.385 12.8)" fill="#1a2e35"/>
            <path id="Fill_250" data-name="Fill 250" d="M3.139,1.569c-.214.149-.8-.267-1.574-.526C.8.759.105.719.006.46-.034.336.119.167.451.068A2.3,2.3,0,0,1,1.816.151,2.545,2.545,0,0,1,2.975.962c.222.3.26.532.164.607" transform="translate(70.154 14.4)" fill="#1a2e35"/>
            <path id="Fill_252" data-name="Fill 252" d="M0,19.79,4.726,3.728A5.511,5.511,0,0,1,6.323.765,5.105,5.105,0,0,1,9.381.013,57.214,57.214,0,0,1,23.088,1.386a2.39,2.39,0,0,1-1.752,2.479,10.385,10.385,0,0,1-3.262.241,4.047,4.047,0,0,0-3.028,1.029c-.789.87-.867,2.216-1.611,3.125C12.152,9.826,9.471,9.5,8.2,11.068c-.963,1.189-.7,2.927-1.021,4.431C6.818,17.2,6.818,17.2,5.5,19.713,4.7,21.253,6.727,24.19,4.7,28L.779,26.866,2.5,20.982.167,26.5Z" transform="translate(49.427 4.8)" fill="#272422"/>
            <path id="Fill_254" data-name="Fill 254" d="M.637.009c.1.052.048.282.042.613A2.28,2.28,0,0,0,.953,1.807a2.572,2.572,0,0,0,.911.881c.3.184.537.277.528.381s-.287.187-.741.09a2.186,2.186,0,0,1-1.4-1.018A1.856,1.856,0,0,1,.134.513c.172-.4.417-.554.5-.5" transform="translate(62.182 22.4)" fill="#1a2e35"/>
            <path id="Fill_256" data-name="Fill 256" d="M6.378,0a1.034,1.034,0,0,1-.212.126,6.585,6.585,0,0,0-.606.349A7.293,7.293,0,0,0,3.675,2.23,7.691,7.691,0,0,0,2.191,5.774a9.041,9.041,0,0,0,.016,2.3A14.512,14.512,0,0,1,2.351,10.6a4.712,4.712,0,0,1-.262,1.273,7.765,7.765,0,0,1-.547,1.116,5.745,5.745,0,0,0-.862,2.1,7.485,7.485,0,0,0,.051,2.079c.087.654.2,1.262.242,1.831A5.035,5.035,0,0,1,.6,21.638a2.693,2.693,0,0,1-.408.6A1.076,1.076,0,0,1,0,22.4a3.829,3.829,0,0,0,.52-.8,5.118,5.118,0,0,0,.3-2.587C.77,18.457.651,17.852.556,17.194a7.569,7.569,0,0,1-.071-2.136c.161-1.579,1.624-2.736,1.653-4.473A14.7,14.7,0,0,0,2,8.1,9.12,9.12,0,0,1,2,5.744,7.716,7.716,0,0,1,3.557,2.132,6.94,6.94,0,0,1,5.517.4,4.714,4.714,0,0,1,6.148.086,1.008,1.008,0,0,1,6.378,0" transform="translate(55.007 9.6)" fill="#1a2e35"/>
            <path id="Fill_258" data-name="Fill 258" d="M6.377,28.074s-.023.023-.075.059a2.624,2.624,0,0,1-.237.152,3.839,3.839,0,0,1-1.015.4,4.395,4.395,0,0,1-1.733.06,3.942,3.942,0,0,1-2.052-.978,3.959,3.959,0,0,1-1.23-2.382,3.606,3.606,0,0,1,.1-1.5,4.52,4.52,0,0,1,.735-1.428A19.238,19.238,0,0,1,3.34,20.042a9.151,9.151,0,0,0,1.215-1.313,6.225,6.225,0,0,0,.832-1.607A9.946,9.946,0,0,0,5.856,13.6a24.046,24.046,0,0,0-.362-3.327A30.312,30.312,0,0,0,4.005,4.782,31.891,31.891,0,0,0,2.441,1.258C2.231.853,2.063.54,1.946.329A2.151,2.151,0,0,1,1.783,0a2.321,2.321,0,0,1,.2.307c.13.2.311.511.534.911A28.29,28.29,0,0,1,4.16,4.728,29.34,29.34,0,0,1,5.7,10.236a23.824,23.824,0,0,1,.378,3.356,10.076,10.076,0,0,1-.477,3.6,6.386,6.386,0,0,1-.863,1.663A9.283,9.283,0,0,1,3.5,20.2a19.4,19.4,0,0,0-2.45,2.373,4.354,4.354,0,0,0-.713,1.36,3.44,3.44,0,0,0-.108,1.425,3.745,3.745,0,0,0,3.115,3.26,4.385,4.385,0,0,0,1.69-.022,5.015,5.015,0,0,0,1.347-.523" transform="translate(74.937 5.6)" fill="#1a2e35"/>
            <path id="Fill_260" data-name="Fill 260" d="M0,24a3.662,3.662,0,0,0,1.355-.693A5.635,5.635,0,0,0,3.15,19.572a22.029,22.029,0,0,0,.073-2.967,13.4,13.4,0,0,1,.259-3.428,6.443,6.443,0,0,1,.68-1.74,4.094,4.094,0,0,1,1.329-1.407C6.633,9.309,8.034,9.344,9.278,8.9a3.982,3.982,0,0,0,1.613-1.087,10.137,10.137,0,0,0,1.141-1.588A8.832,8.832,0,0,1,14.381,3.3a3.934,3.934,0,0,1,1.632-.612,8.7,8.7,0,0,1,1.625-.073,16.146,16.146,0,0,0,2.876-.023,8.444,8.444,0,0,0,3.824-1.575,9.608,9.608,0,0,0,.879-.738l.214-.21C25.481.02,25.508,0,25.51,0a6.11,6.11,0,0,1-1.122,1.085,8.335,8.335,0,0,1-3.854,1.662,15.975,15.975,0,0,1-2.9.052,5.219,5.219,0,0,0-3.143.672,8.709,8.709,0,0,0-2.276,2.867,10.252,10.252,0,0,1-1.165,1.624,4.191,4.191,0,0,1-1.7,1.146c-1.3.46-2.678.43-3.748,1.111a4.775,4.775,0,0,0-1.925,3.009A13.356,13.356,0,0,0,3.4,16.6a21.6,21.6,0,0,1-.1,2.989,5.65,5.65,0,0,1-1.9,3.782,3.1,3.1,0,0,1-1.016.542,2.161,2.161,0,0,1-.29.069A.327.327,0,0,1,0,24" transform="translate(44.643 4)" fill="#375a64"/>
            <path id="Fill_262" data-name="Fill 262" d="M0,6.832a5.072,5.072,0,0,0,.841.225,4.175,4.175,0,0,0,2.3-.376,9.6,9.6,0,0,0,2.752-2.15c.468-.473.956-.98,1.511-1.458a6.955,6.955,0,0,1,1.92-1.22,6.292,6.292,0,0,1,2.244-.41,18.993,18.993,0,0,1,2.107.116c.666.063,1.3.129,1.886.134a8.245,8.245,0,0,0,1.63-.132A4.521,4.521,0,0,0,19.326.625a7.487,7.487,0,0,0,.6-.625.876.876,0,0,1-.115.2,1.474,1.474,0,0,1-.168.219,2.123,2.123,0,0,1-.262.273,4.441,4.441,0,0,1-2.166,1.024,8.131,8.131,0,0,1-1.661.161c-.6,0-1.238-.057-1.9-.114a19.6,19.6,0,0,0-2.084-.1,6.145,6.145,0,0,0-2.165.4A10.884,10.884,0,0,0,6.036,4.674,9.5,9.5,0,0,1,3.2,6.823a4.128,4.128,0,0,1-2.376.318,2.839,2.839,0,0,1-.628-.2A.875.875,0,0,1,0,6.832" transform="translate(48.629 3.2)" fill="#375a64"/>
            <path id="Fill_264" data-name="Fill 264" d="M7.664,18.4a3.778,3.778,0,0,0,.2-.833,3.821,3.821,0,0,0-.58-2.211,14.336,14.336,0,0,0-2.233-2.544,6.354,6.354,0,0,1-1.184-1.682,6.245,6.245,0,0,1-.5-2.2c-.094-1.554.153-3.007.121-4.323a5.485,5.485,0,0,0-.9-3.265A2.993,2.993,0,0,0,.8.107,3.3,3.3,0,0,0,0,.086.736.736,0,0,1,.2.028,1.937,1.937,0,0,1,.813.02,2.988,2.988,0,0,1,2.7,1.239,5.575,5.575,0,0,1,3.678,4.6c.042,1.342-.2,2.8-.105,4.312a6.077,6.077,0,0,0,.479,2.119,6.251,6.251,0,0,0,1.136,1.632,13.772,13.772,0,0,1,2.222,2.608,3.821,3.821,0,0,1,.534,2.305,2.289,2.289,0,0,1-.173.627.85.85,0,0,1-.109.2" transform="translate(71.748 4)" fill="#375a64"/>
            <path id="Fill_266" data-name="Fill 266" d="M1.769,22.4a1.529,1.529,0,0,1-.267-.149,3.084,3.084,0,0,1-.65-.591,3.875,3.875,0,0,1-.8-3.086A3.728,3.728,0,0,1,.407,17.54a4.018,4.018,0,0,1,.736-.923,9.329,9.329,0,0,1,2.17-1.354,8.511,8.511,0,0,0,2.318-1.5,5.572,5.572,0,0,0,1.312-2.631c.253-1,.426-2.015.75-2.954A12.821,12.821,0,0,1,8.9,5.607a13.257,13.257,0,0,1,3.173-3.571A12.141,12.141,0,0,1,14.837.394a7.81,7.81,0,0,1,.815-.308A1.541,1.541,0,0,1,15.944,0c.009.025-.391.151-1.073.472a12.929,12.929,0,0,0-2.7,1.686,13.393,13.393,0,0,0-3.1,3.554A12.849,12.849,0,0,0,7.9,8.251c-.315.921-.485,1.922-.741,2.94a5.755,5.755,0,0,1-1.371,2.728A8.6,8.6,0,0,1,3.4,15.445a9.267,9.267,0,0,0-2.138,1.308,3.864,3.864,0,0,0-.71.87A3.606,3.606,0,0,0,.2,18.6a3.976,3.976,0,0,0,.1,1.79,3.625,3.625,0,0,0,.617,1.213,4.3,4.3,0,0,0,.851.794" transform="translate(40.657 2.4)" fill="#1a2e35"/>
            <path id="Fill_268" data-name="Fill 268" d="M4.836,17.6c-.019-.018.186-.205.465-.611a5.16,5.16,0,0,0,.774-1.9,7.067,7.067,0,0,0-.107-3.034A12.075,12.075,0,0,0,4.4,8.635C3.684,7.5,2.908,6.464,2.254,5.487A17.85,17.85,0,0,1,.71,2.772,8.9,8.9,0,0,1,.079.766,5.337,5.337,0,0,1,.008.2a.668.668,0,0,1,0-.2c.022,0,.05.27.161.749a10.027,10.027,0,0,0,.69,1.959A19.03,19.03,0,0,0,2.429,5.372c.66.966,1.442,2,2.168,3.145A11.927,11.927,0,0,1,6.171,12a7.047,7.047,0,0,1,.061,3.114,4.942,4.942,0,0,1-.86,1.923,3.5,3.5,0,0,1-.384.43c-.1.092-.148.136-.153.131" transform="translate(76.531 5.6)" fill="#1a2e35"/>
            <path id="Fill_270" data-name="Fill 270" d="M36.423.274,32.9,6.344S15.4,0,5.163,1.848c-3.894.7-8.062,9.459-2.388,15.082,5.536,5.486,15.437,13.241,34.011,15.752.463.063,8.071,1.681,7.6,1.627S55.054,36,55.054,36l2.614-9.8,20.746,3.226C90.64,28.6,96.623,15.648,89.261,11.478c-6.868-3.891-19.783-4.2-19.783-4.2L64.8,0Z" transform="translate(0 82.4)" fill="#272422"/>
            <path id="Fill_272" data-name="Fill 272" d="M38.064,30.4c.054-.331.2-1.224.5-3.054.164-.977.366-2.168.627-3.539.131-.685.277-1.414.451-2.183.089-.384.183-.778.3-1.179.058-.2.118-.4.192-.605a1.815,1.815,0,0,1,.313-.6l.031.148c-4.394-1.554-9.886-3.607-15.741-6.065-3.6-1.525-7-3.066-9.984-4.669a32.35,32.35,0,0,1-4.095-2.53c-1.215-.893-2.3-1.785-3.311-2.563A17.948,17.948,0,0,0,2.153.526,8.214,8.214,0,0,0,1.244.258,5.261,5.261,0,0,0,.565.112L.143.035A.752.752,0,0,1,0,0,.673.673,0,0,1,.146.013L.572.067A4.935,4.935,0,0,1,1.26.194a7.8,7.8,0,0,1,.921.25A12.339,12.339,0,0,1,4.57,1.5a25.114,25.114,0,0,1,2.871,1.93c1.022.772,2.11,1.657,3.323,2.539a32.645,32.645,0,0,0,4.084,2.5c2.984,1.588,6.377,3.121,9.973,4.644,5.849,2.457,11.333,4.524,15.713,6.1l.122.044-.091.1a1.78,1.78,0,0,0-.271.535c-.072.2-.133.4-.191.593-.114.4-.211.786-.3,1.168-.179.764-.331,1.491-.468,2.174-.273,1.366-.489,2.555-.668,3.529s-.321,1.72-.42,2.252c-.051.258-.093.455-.125.587a1.479,1.479,0,0,1-.057.2" transform="translate(17.538 88)" fill="#375a64"/>
            <path id="Fill_274" data-name="Fill 274" d="M42.252.6a.418.418,0,0,1-.112-.01L41.815.541c-.286-.037-.7-.144-1.244-.2A24.114,24.114,0,0,0,35.953.183a34.322,34.322,0,0,0-6.761,1.112c-1.248.334-2.547.726-3.877,1.185s-2.686.99-4.075,1.542a37.787,37.787,0,0,1-4.155,1.367c-1.362.375-2.694.668-3.967.914-2.548.5-4.864.8-6.81,1.037s-3.523.4-4.613.508L.44,7.97.112,8A.439.439,0,0,1,0,8a.412.412,0,0,1,.11-.024l.325-.048,1.251-.164,4.6-.578C8.23,6.926,10.541,6.6,13.079,6.1c1.268-.251,2.594-.547,3.949-.923a38.211,38.211,0,0,0,4.13-1.364c1.388-.551,2.752-1.082,4.086-1.541s2.641-.848,3.9-1.178a33.578,33.578,0,0,1,6.8-1.071,22.784,22.784,0,0,1,4.639.235c.545.066.957.187,1.24.239l.32.073A.409.409,0,0,1,42.252.6" transform="translate(43.049 94.4)" fill="#375a64"/>
            <path id="Fill_276" data-name="Fill 276" d="M16.741,1.787c.013.141-.923.367-2.466.506a32.491,32.491,0,0,1-6.047-.074A32.4,32.4,0,0,1,2.3,1.056C.823.6-.042.193,0,.058c.1-.3,3.748.637,8.344,1.1,4.592.488,8.366.319,8.4.631" transform="translate(36.671 89.6)" fill="#1a2e35"/>
            <path id="Fill_278" data-name="Fill 278" d="M15.147,0a4.06,4.06,0,0,1-.669.184C14.26.234,14,.3,13.7.4s-.65.185-1.023.324a24.574,24.574,0,0,0-2.587,1.062c-.948.464-1.969,1.018-3.008,1.66A47.7,47.7,0,0,0,2.005,7.129C1.383,7.64.887,8.064.546,8.359A4.278,4.278,0,0,1,0,8.8a4.3,4.3,0,0,1,.49-.506c.324-.316.806-.759,1.417-1.287A40.615,40.615,0,0,1,6.965,3.25,32.1,32.1,0,0,1,10,1.6,21.854,21.854,0,0,1,12.626.571C13,.44,13.356.353,13.665.276a7.245,7.245,0,0,1,.8-.174,4.071,4.071,0,0,1,.686-.1" transform="translate(54.21 89.6)" fill="#375a64"/>
            <path id="Fill_280" data-name="Fill 280" d="M7.972,4a4.8,4.8,0,0,1-1.244-.383A25.609,25.609,0,0,1,3.887,2.227L1.133.668A9.067,9.067,0,0,1,0,0a5.736,5.736,0,0,1,1.2.51c.727.356,1.707.9,2.786,1.5s2.067,1.111,2.8,1.443A12.549,12.549,0,0,1,7.972,4" transform="translate(42.252 94.4)" fill="#375a64"/>
            <path id="Fill_282" data-name="Fill 282" d="M.514,0A13.4,13.4,0,0,1,.4,1.644,38.78,38.78,0,0,0,.284,5.605a39,39,0,0,0,.31,3.956A13.271,13.271,0,0,1,.788,11.2a1.449,1.449,0,0,1-.138-.43C.577,10.491.49,10.084.4,9.58A26.916,26.916,0,0,1,.205,1.631C.271,1.124.337.715.4.434A1.437,1.437,0,0,1,.514,0" transform="translate(51.818 83.2)" fill="#375a64"/>
            <path id="Fill_284" data-name="Fill 284" d="M.613.183C.624.2.543.249.437.372A1.2,1.2,0,0,0,.175.989,1.161,1.161,0,0,0,.433,1.9.977.977,0,0,0,1.51,2.11a1,1,0,0,0,.684-.867A1.156,1.156,0,0,0,1.8.378,1.175,1.175,0,0,0,1.2.085C1.046.06.953.077.95.056S1.035,0,1.212,0A1.138,1.138,0,0,1,1.9.26a1.282,1.282,0,0,1,.493.988,1.187,1.187,0,0,1-.807,1.066,1.163,1.163,0,0,1-1.3-.276A1.29,1.29,0,0,1,.024.964,1.161,1.161,0,0,1,.378.313C.512.2.61.174.613.183" transform="translate(53.413 84)" fill="#375a64"/>
            <path id="Fill_286" data-name="Fill 286" d="M11.957,0a2.737,2.737,0,0,1-.328.462,12.851,12.851,0,0,1-1.015,1.148,16.341,16.341,0,0,1-1.687,1.5,17.808,17.808,0,0,1-2.3,1.486A17.357,17.357,0,0,1,4.139,5.667a15.13,15.13,0,0,1-2.132.542,11.359,11.359,0,0,1-1.466.177,2.416,2.416,0,0,1-.541,0c0-.045.766-.09,1.979-.345a17.12,17.12,0,0,0,2.1-.585A18.837,18.837,0,0,0,6.532,4.384,19.411,19.411,0,0,0,8.811,2.931a18.573,18.573,0,0,0,1.7-1.443C11.429.6,11.926-.028,11.957,0" transform="translate(47.832 76.8)" fill="#1a2e35"/>
            <path id="Fill_288" data-name="Fill 288" d="M3.189.063c0,.06-.744.06-1.62.265S.032.847,0,.794A3.369,3.369,0,0,1,1.517.134,3.506,3.506,0,0,1,3.189.063" transform="translate(63.776 81.6)" fill="#1a2e35"/>
            <path id="Fill_290" data-name="Fill 290" d="M.646,5.581A16.244,16.244,0,0,0,10.141,0a3.971,3.971,0,0,1-.933,3.978c1.082.522,2.349.175,3.535.009s2.634,0,3.2,1.07A122.689,122.689,0,0,1,0,5.52" transform="translate(48.629 76.8)"/>
            <path id="Fill_292" data-name="Fill 292" d="M11.957,1.757A5.985,5.985,0,0,0,10.108.587,6.078,6.078,0,0,0,7.765.2a6.551,6.551,0,0,0-2.8.732,12.044,12.044,0,0,0-3.823,3.6A11.487,11.487,0,0,0,.3,5.889,3.261,3.261,0,0,1,0,6.4,2.82,2.82,0,0,1,.22,5.852a9.16,9.16,0,0,1,.79-1.41c.395-.564.91-1.188,1.5-1.876A8.3,8.3,0,0,1,4.859.741,6.6,6.6,0,0,1,7.76,0a6.021,6.021,0,0,1,2.408.444,4.691,4.691,0,0,1,1.391.868,2.684,2.684,0,0,1,.307.319c.065.077.1.12.09.125" transform="translate(27.105 72.8)" fill="#1a2e35"/>
            <path id="Fill_294" data-name="Fill 294" d="M5.9,0,0,1.243,2.948,12.178,13.383,14.4l7.159-5.038.982-6.028-6.139-2.3Z" transform="translate(43.846 33.6)" fill="#ffbf9d"/>
            <g transform="matrix(1, 0, 0, 1, -28, -98.33)" filter="url(#Fill_296)">
                <path id="Fill_296-2" data-name="Fill 296" d="M17.163,0s4.028,11.749,11.473,10.663,6.823-8.7,6.823-8.7,7.77,2.378,10.172,4.91.994,8.032.994,8.032L44.61,24.847,40.227,43.894s1.676,5.194-2.607,6.479l-1.353-2.131-25.7.73s-5.5,6.363-7.209,4.168A32.249,32.249,0,0,1,0,46.668L11.795,1.4Z" transform="translate(56.7 131.93)" fill="#390b12"/>
            </g>
            <g transform="matrix(1, 0, 0, 1, -28, -98.33)" filter="url(#Fill_298)">
                <path id="Fill_298-2" data-name="Fill 298" d="M4.219,0c.206.12,18.1,13.2,18.1,13.2s-1.4,10.752,7.177,9.04c0,0-3.469,8.992-8.165,7.1C20,28.8,3.5,18.311,3.5,18.311L0,10.806Z" transform="translate(95.76 137.53)" fill="#390b12"/>
            </g>
            <g transform="matrix(1, 0, 0, 1, -28, -98.33)" filter="url(#Fill_300)">
                <path id="Fill_300-2" data-name="Fill 300" d="M20.727,0s-.415.011-1.116.078C16.017.419,2.75,3.136,1.522,12.391.88,17.233.7,31.391,0,37.326c0,0,1.11,8.25,1.522,9.78.734,2.72,14.042-1.634,14.042-1.634l.028-26.2L20.312.011" transform="translate(53.51 132.73)" fill="#390b12"/>
            </g>
            <path id="Fill_302" data-name="Fill 302" d="M.038,0A.741.741,0,0,1,.059.21,5.151,5.151,0,0,0,.1.806a8.294,8.294,0,0,0,.57,2.118c.345.868.87,1.856,1.4,2.987a13.3,13.3,0,0,1,.706,1.828A10.545,10.545,0,0,1,3.141,9.8a23.782,23.782,0,0,1-.107,4.024c-.111,1.229-.218,2.338-.379,3.262a13.517,13.517,0,0,1-.533,2.157c-.087.248-.162.439-.22.565A.77.77,0,0,1,1.8,20c-.018-.007.084-.278.231-.779a16.12,16.12,0,0,0,.458-2.155c.139-.92.229-2.026.329-3.255a24.942,24.942,0,0,0,.089-3.99,10.61,10.61,0,0,0-.353-2.026,13.549,13.549,0,0,0-.683-1.8C1.363,4.865.849,3.862.519,2.978A7.618,7.618,0,0,1,.013.813a3.6,3.6,0,0,1,0-.6A.727.727,0,0,1,.038,0" transform="translate(37.469 58.4)" fill="#1a2e35"/>
            <path id="Fill_304" data-name="Fill 304" d="M.019,0c.033,0,.062.652.2,1.7a23.855,23.855,0,0,0,.871,4c.121.38.243.749.375,1.1a1.641,1.641,0,0,0,.1.24l.14.233c.091.157.177.314.251.474a4.244,4.244,0,0,1,.44,1.819A3.42,3.42,0,0,1,2.159,10.8a1.693,1.693,0,0,1-.215.4,4.624,4.624,0,0,0,.3-1.64,4.227,4.227,0,0,0-.462-1.73c-.073-.152-.158-.3-.248-.454l-.142-.231a1.708,1.708,0,0,1-.116-.274c-.136-.353-.26-.726-.383-1.11A20.2,20.2,0,0,1,.075,1.714C.022,1.187.008.757,0,.461A1.985,1.985,0,0,1,.019,0" transform="translate(38.266 55.2)" fill="#1a2e35"/>
            <path id="Fill_306" data-name="Fill 306" d="M5.577,8c-.033.012-.217-.514-.582-1.33A19.007,19.007,0,0,0,3.284,3.641,18.782,18.782,0,0,0,1.041,1C.406.378-.021.029,0,0A1.353,1.353,0,0,1,.326.213c.2.146.483.375.816.673a15.559,15.559,0,0,1,2.314,2.63A15.761,15.761,0,0,1,5.131,6.609c.167.419.287.765.356,1.008A1.414,1.414,0,0,1,5.577,8" transform="translate(32.685 43.2)" fill="#1a2e35"/>
            <path id="Fill_308" data-name="Fill 308" d="M.787,0A5.377,5.377,0,0,1,.7,1.059C.617,1.709.508,2.606.4,3.6S.224,5.492.167,6.145A5.4,5.4,0,0,1,.037,7.2,4.57,4.57,0,0,1,.006,6.136c.016-.657.068-1.563.171-2.561s.24-1.894.36-2.54A4.558,4.558,0,0,1,.787,0" transform="translate(74.937 43.2)" fill="#1a2e35"/>
            <path id="Fill_310" data-name="Fill 310" d="M6.378.009C6.383.049,5.845.1,5.018.347A6.36,6.36,0,0,0,2.174,2.076,8.02,8.02,0,0,0,1.088,3.607,11.683,11.683,0,0,0,.463,5.029l-.2.568-.128.436A1.4,1.4,0,0,1,0,6.4a1.411,1.411,0,0,1,.055-.388l.095-.449q.078-.272.169-.585a10.017,10.017,0,0,1,.6-1.468,7.628,7.628,0,0,1,1.1-1.586A6.071,6.071,0,0,1,4.98.2,4.956,4.956,0,0,1,5.558.076,4.1,4.1,0,0,1,6,.018,1.294,1.294,0,0,1,6.378.009" transform="translate(72.545 54.4)" fill="#1a2e35"/>
            <path id="Fill_312" data-name="Fill 312" d="M2.389,13.6a2.633,2.633,0,0,1-.334-.474,6.148,6.148,0,0,1-.341-.58c-.121-.231-.273-.489-.4-.789A14.007,14.007,0,0,1,.522,9.621,15.3,15.3,0,0,1,.038,6.905,15.129,15.129,0,0,1,.094,4.158,13.656,13.656,0,0,1,.547,1.949c.079-.312.189-.585.273-.828A5.949,5.949,0,0,1,1.068.508,2.521,2.521,0,0,1,1.325,0c.047.014-.281.75-.6,1.985A15.3,15.3,0,0,0,.329,4.178,16.391,16.391,0,0,0,.293,6.891,16.516,16.516,0,0,0,.752,9.574,15.832,15.832,0,0,0,1.483,11.7c.509,1.186.949,1.878.905,1.9" transform="translate(89.287 52.8)" fill="#1a2e35"/>
            <path id="Fill_314" data-name="Fill 314" d="M.476,10.4a2.137,2.137,0,0,1-.154-.452A8.874,8.874,0,0,1,.073,8.661a10.771,10.771,0,0,1,.373-4.3A9.894,9.894,0,0,1,2.466.625,1.708,1.708,0,0,1,3.552,0,.714.714,0,0,1,3.888.07c.069.041.1.067.1.073A1.152,1.152,0,0,0,3.558.086,1.731,1.731,0,0,0,2.57.733,10.527,10.527,0,0,0,.642,4.43,11.454,11.454,0,0,0,.218,8.644c.1,1.09.3,1.744.258,1.756" transform="translate(86.098 52.8)" fill="#1a2e35"/>
            <path id="Fill_316" data-name="Fill 316" d="M8.766,0a2.22,2.22,0,0,1-.105.5,4.774,4.774,0,0,1-.175.57c-.08.218-.158.472-.284.738a11.789,11.789,0,0,1-.975,1.818,13.579,13.579,0,0,1-1.6,1.969A13.706,13.706,0,0,1,3.657,7.2a12.2,12.2,0,0,1-1.831,1c-.268.129-.525.212-.746.3A4.957,4.957,0,0,1,.5,8.682,2.365,2.365,0,0,1,0,8.8c-.013-.042.7-.232,1.76-.734A13.384,13.384,0,0,0,3.542,7.039a14.6,14.6,0,0,0,1.928-1.6A14.465,14.465,0,0,0,7.056,3.513a13.008,13.008,0,0,0,1-1.77C8.546.69,8.723-.012,8.766,0" transform="translate(48.629 60.8)" fill="#1a2e35"/>
            <path id="Fill_318" data-name="Fill 318" d="M4.288,10.09,1.75,1.048C1.627.609,1.421.09.96.009a.864.864,0,0,0-.9.738A4.744,4.744,0,0,0,.035,2.068,10.171,10.171,0,0,0,1.33,6.886c1.826,2.964.622,4.4.622,4.4A39.772,39.772,0,0,1,.635,23.527L1.721,28c1.032-3.324,3.387-6.1,3.784-9.55.324-2.815-.45-5.628-1.217-8.36" transform="translate(38.266 55.2)" fill="rgba(39,36,34,0.5)"/>
            <path id="Fill_320" data-name="Fill 320" d="M0,1.157C3.061,2.677,5.784,4.775,8.769,6.4A13.546,13.546,0,0,0,3.275.542,3.574,3.574,0,0,0,1.2.019C.48.116-.04.5.069,1.192" transform="translate(73.343 57.6)" fill="rgba(39,36,34,0.5)"/>
            <path id="Fill_322" data-name="Fill 322" d="M3.783.178C2.827.154,2.1,1.053,1.636,1.916A13.762,13.762,0,0,0,.09,9.99c.058.5.237,1.1.714,1.2a.828.828,0,0,0,.846-.52A2.5,2.5,0,0,0,1.81,9.6a36.134,36.134,0,0,1,.121-5.082A7.6,7.6,0,0,1,3.986,0" transform="translate(86.098 52)" fill="rgba(39,36,34,0.5)"/>
            <path id="Fill_324" data-name="Fill 324" d="M0,.965A.458.458,0,0,1,.1.953L.4.933,1.578.871l4.445-.2L21.763,0l.1,0,0,.1c.129,5.253.278,11.3.436,17.7.005.215.01.431.015.641l0,.114h-.114A155.73,155.73,0,0,0,2.831,19.988L2.746,20l-.023-.081A68.287,68.287,0,0,1,.412,6.067C.309,4.374.29,3.041.291,2.134c0-.454.01-.8.014-1.036C.309.987.311.9.313.832A.432.432,0,0,1,.321.742a.37.37,0,0,1,.008.09c0,.068,0,.155.007.266,0,.244.008.59.015,1.035C.369,3.04.406,4.37.526,6.06A70.175,70.175,0,0,0,2.911,19.867L2.8,19.8a152.01,152.01,0,0,1,19.4-1.469l-.112.115c-.005-.21-.01-.425-.016-.641-.149-6.4-.289-12.442-.411-17.7l.1.1L6.028.786,1.581.934.4.965l-.3,0a.516.516,0,0,1-.1,0" transform="translate(44.643 54.4)" fill="#fff"/>
            <path id="Fill_326" data-name="Fill 326" d="M2.385,12.8c-.067.01-.653-2.847-1.31-6.382S-.06.01.006,0s.653,2.847,1.31,6.382S2.452,12.79,2.385,12.8" transform="translate(47.832 56)" fill="#fff"/>
            <path id="Fill_328" data-name="Fill 328" d="M.78,4.8a12.857,12.857,0,0,1-.5-2.382A12.84,12.84,0,0,1,.017,0a12.879,12.879,0,0,1,.5,2.382A12.84,12.84,0,0,1,.78,4.8" transform="translate(50.224 69.6)" fill="#fff"/>
            <path id="Fill_330" data-name="Fill 330" d="M.793,10.4A1.924,1.924,0,0,1,.705,10c-.046-.258-.1-.633-.169-1.1C.406,7.974.259,6.677.154,5.236S.008,2.484,0,1.535C0,1.061,0,.677.009.412A2.012,2.012,0,0,1,.038,0C.062,0,.079.585.115,1.53s.1,2.248.2,3.684S.548,7.943.649,8.879.816,10.394.793,10.4" transform="translate(54.21 55.2)" fill="#fff"/>
            <path id="Fill_332" data-name="Fill 332" d="M.781,6.4A22.941,22.941,0,0,1,.286,3.215,23.082,23.082,0,0,1,.016,0,22.926,22.926,0,0,1,.511,3.186,22.989,22.989,0,0,1,.781,6.4" transform="translate(53.413 67.2)" fill="#fff"/>
            <path id="Fill_334" data-name="Fill 334" d="M2.379,17.6a3.683,3.683,0,0,1-.1-.693c-.049-.484-.114-1.122-.193-1.892-.161-1.6-.4-3.8-.729-6.231S.676,4.161.408,2.574L.092.694A3.609,3.609,0,0,1,0,0,3.811,3.811,0,0,1,.19.68c.1.439.24,1.079.4,1.87.314,1.582.7,3.776,1.024,6.21S2.152,13.4,2.267,15c.058.8.1,1.449.112,1.9a3.626,3.626,0,0,1,0,.7" transform="translate(56.601 55.2)" fill="#fff"/>
            <path id="Fill_336" data-name="Fill 336" d="M.7,18.4a5.594,5.594,0,0,1-.025-.725c0-.5-.008-1.17-.014-1.975C.651,14.033.615,11.731.519,9.191S.284,4.353.171,2.692C.115,1.891.07,1.228.035.725A5.552,5.552,0,0,1,0,0,5.634,5.634,0,0,1,.1.715c.053.462.12,1.132.192,1.962.146,1.659.3,3.958.4,6.5S.81,14.031.79,15.7C.78,16.535.765,17.21.747,17.676A5.564,5.564,0,0,1,.7,18.4" transform="translate(62.182 55.2)" fill="#fff"/>
            <path id="Fill_338" data-name="Fill 338" d="M.127,8.247A3.687,3.687,0,0,0,2.4,8.791,7.359,7.359,0,0,0,4.7,8.2,6.941,6.941,0,0,0,7.313,6.508,5.894,5.894,0,0,0,8.632,3.5,17.4,17.4,0,0,0,8.743.191.24.24,0,0,0,8.711.052.175.175,0,0,0,8.466.047.5.5,0,0,0,8.335.28,12.431,12.431,0,0,1,0,8.016" transform="translate(48.629 61.6)" fill="rgba(39,36,34,0.5)"/>
            <g id="Group_342" data-name="Group 342" transform="translate(27.902 72.8)">
                <path id="Clip_341-2" data-name="Clip 341" d="M0,0H22.671V46.905H0Z" transform="translate(0.096 0.295)" fill="none"/>
                <g id="Group_342-2" data-name="Group 342" clip-path="url(#clip-path-11)">
                    <path id="Fill_340" data-name="Fill 340" d="M18.009,33.221,15.439,28.3,9.665.708S4.351-2.4,0,4.421c-.175.275,5.984,20.037,7.7,25.536l.241,5.258s-.305,6.226,0,6.771a2.451,2.451,0,0,0,1.067.856,1.5,1.5,0,0,0,1.525,1.712s.153,1.712,1.449,1.479a2.48,2.48,0,0,0,1.753-1.089s0,2.179,1.143,1.946,1.33-1.168,1.542-1.479a24.323,24.323,0,0,0,.453-3.5l-.021-5.272L19.836,39.1c.86.438,2.119.98,2.835.326Z" transform="translate(0.096 0.295)" fill="#ffbf9d"/>
                </g>
            </g>
            <path id="Fill_343" data-name="Fill 343" d="M.3,0a5.2,5.2,0,0,1,.32,2.8C.558,3.524.5,4.179.444,4.78.395,5.285.362,5.6.3,5.6A6.852,6.852,0,0,1,.208,2.8C.348,1.253.193.008.3,0" transform="translate(44.643 108.8)" fill="#ff9a6c"/>
            <path id="Fill_345" data-name="Fill 345" d="M.333,0A9.663,9.663,0,0,1,.606,2.8,9.563,9.563,0,0,1,.464,5.6,9.69,9.69,0,0,1,.191,2.8,9.567,9.567,0,0,1,.333,0" transform="translate(41.455 112.8)" fill="#ff9a6c"/>
            <path id="Fill_347" data-name="Fill 347" d="M.621,0a3.556,3.556,0,0,1,.1,2.025A3.979,3.979,0,0,1,.025,4,12.019,12.019,0,0,1,.343,2,11.874,11.874,0,0,1,.621,0" transform="translate(38.266 113.6)" fill="#ff9a6c"/>
            <path id="Fill_349" data-name="Fill 349" d="M.615,0c.114.006.11.548-.01,1.211S.3,2.406.183,2.4s-.11-.548.01-1.211S.5-.007.615,0" transform="translate(36.671 112.8)" fill="#ff9a6c"/>
            <g id="Phone-2" data-name="Phone" transform="translate(104.434 21.6)">
                <g transform="matrix(1, 0, 0, 1, -132.43, -119.93)" filter="url(#Fill_146)">
                    <path id="Fill_146-2" data-name="Fill 146" d="M2.051,0C1.97.219,0,17.6,0,17.6l7.6-1.289L9.566,1.949Z" transform="translate(132.43 119.93)" fill="#390b12"/>
                </g>
                <path id="Fill_148" data-name="Fill 148" d="M.524,17.6,0,17.28,1.591,0l.8.235Z" fill="#8f5f43"/>
                <path id="Fill_150" data-name="Fill 150" d="M0,.4A.4.4,0,1,0,.4,0,.4.4,0,0,0,0,.4" transform="translate(5.58 3.2)" fill="#8f5f43"/>
            </g>
            <path id="Path_4" data-name="Path 4" d="M4.095,0H.906s-1.993,1.2.4,1.6L3.7,2S.746,1.6.348,2.4,3.935,3.6,3.935,3.6a9.9,9.9,0,0,1-2.79,1.2C-.449,5.2,3.537,6,3.537,6Z" transform="translate(109.108 29.2)" fill="#ffbf9d"/>
        </g>
    </g>
</svg>
