<svg xmlns="http://www.w3.org/2000/svg" xmlns:xlink="http://www.w3.org/1999/xlink" width="245.657" height="117.096" viewBox="0 0 245.657 117.096"><defs><style>.a{fill:none;}.b{fill:#ececec;}.c{fill:#fafafa;}.d{fill:#e1e1e1;}.e{clip-path:url(#a);}.f{fill:#9d9ea3;}.g{fill:#fff;}</style><clipPath id="a"><path class="a" d="M0,0H34.436V11.276H0Z" transform="translate(0.137 0.599)"/></clipPath></defs><g transform="translate(0 -4.904)"><g transform="translate(0 6)"><path class="b" d="M0,71.885l56.582.445L57.14.445.557,0Z" transform="translate(43.535 42.306)"/><path class="c" d="M9.523.063,8.56,69.6,0,69.53,1.834,0Z" transform="translate(68.023 45.035)"/><path class="d" d="M.535,0,33.571.254,91.151.7,33.508,8.171,33.022,69.6,0,69.346Z" transform="translate(9.523 45.035)"/><path class="c" d="M10.884.074,9.6,69.6,0,69.524,1.569,0Z" transform="translate(17.686 45.035)"/><path class="d" d="M24.488,20.987c0,.149-.938.327-2.651.506a67.272,67.272,0,0,1-7.3.341,39.221,39.221,0,0,1-10.9-1.5,7.671,7.671,0,0,1-1.6-.748A4.454,4.454,0,0,1,.585,18.139,4.19,4.19,0,0,1,0,16a8.411,8.411,0,0,1,.235-1.96A45.95,45.95,0,0,1,2.3,7.014,18.558,18.558,0,0,1,4.1,3.645,10.359,10.359,0,0,1,6.751.894,5.442,5.442,0,0,1,8.591.1a4.464,4.464,0,0,1,2.022.038A7.976,7.976,0,0,1,13.691,1.9a33.058,33.058,0,0,1,7.258,8.684,28.589,28.589,0,0,1,2.936,7.119c.434,1.775.485,2.791.361,2.82-.344.113-1.131-3.882-4.52-9.11a34.613,34.613,0,0,0-7.2-7.943A6.3,6.3,0,0,0,10.17,2.148a2.882,2.882,0,0,0-2.335.533A8.555,8.555,0,0,0,5.761,4.907,16.913,16.913,0,0,0,4.186,7.876,47.644,47.644,0,0,0,2.2,14.529a3.441,3.441,0,0,0,.055,2.515,3.788,3.788,0,0,0,2,1.4A24.437,24.437,0,0,0,7,19.216c.913.218,1.814.38,2.687.527,1.748.284,3.4.449,4.912.562,3.029.217,5.507.259,7.22.347s2.668.184,2.672.335" transform="translate(29.93 2.729)"/><path class="c" d="M0,24.474c-.022-.149,1.023-.462,2.929-.912s4.673-1.034,8.044-1.877a74.47,74.47,0,0,0,11.538-3.774A12.742,12.742,0,0,0,25.4,16.319a3.344,3.344,0,0,0,.93-1.065,1.842,1.842,0,0,0,.16-1.209,6.765,6.765,0,0,0-.549-1.579q-.406-.886-.817-1.787a30.341,30.341,0,0,0-1.847-3.442,14.789,14.789,0,0,0-2.371-2.9,9.086,9.086,0,0,0-2.87-1.913,4.4,4.4,0,0,0-2.979-.135A7.688,7.688,0,0,0,12.4,3.965a41.775,41.775,0,0,0-7.729,9.426,36.56,36.56,0,0,0-3.429,7.6c-.6,1.9-.843,2.991-1,2.967C.11,23.941.077,22.8.451,20.777a29.628,29.628,0,0,1,2.938-8.151A39.636,39.636,0,0,1,11.126,2.467,9.44,9.44,0,0,1,14.456.321,6.326,6.326,0,0,1,18.732.43a8.986,8.986,0,0,1,1.911.988A14.14,14.14,0,0,1,22.3,2.735a16.582,16.582,0,0,1,2.725,3.309A31.379,31.379,0,0,1,27,9.742q.414.923.823,1.833a8.587,8.587,0,0,1,.691,2.128,4.038,4.038,0,0,1-.394,2.539,5.344,5.344,0,0,1-1.509,1.723,14.109,14.109,0,0,1-3.375,1.793A63.786,63.786,0,0,1,11.282,23.18c-3.458.661-6.273,1.009-8.222,1.213S.023,24.62,0,24.474" transform="translate(53.058)"/><path class="d" d="M0,23.908l84.162.657L84.349.658.186,0Z" transform="translate(0 20.471)"/><path class="b" d="M0,23.97l76,.595L76.186.595.187,0Z" transform="translate(31.291 20.471)"/><path class="c" d="M9.523.07,8.981,24.565,0,24.377.626,0Z" transform="translate(74.826 20.471)"/><path class="c" d="M10.884.2,10,24.565l-10-.08L.536,0Z" transform="translate(9.523 20.471)"/><path class="b" d="M0,32.552l25.6.2L25.849.2.252,0Z" transform="translate(87.07 83.247)"/><path class="c" d="M4.081.028l-.412,31.36L0,31.356.786,0Z" transform="translate(97.953 83.247)"/><path class="d" d="M.24,0,15.032.115l25.782.2L15,3.685l-.217,27.7L0,31.274Z" transform="translate(72.105 83.247)"/><path class="c" d="M5.442.033,4.8,31.388,0,31.354.784,0Z" transform="translate(74.826 83.247)"/><path class="d" d="M12.23,10.114c0,.276-1.767.688-4.757.8a18.444,18.444,0,0,1-5.35-.587A3.135,3.135,0,0,1,.372,9.115,2.407,2.407,0,0,1,0,7.853a4.2,4.2,0,0,1,.12-1.032,19.883,19.883,0,0,1,1-3.3,8.849,8.849,0,0,1,.925-1.64A5.345,5.345,0,0,1,3.475.488,2.932,2.932,0,0,1,5.746.082a4.293,4.293,0,0,1,1.672.923,14.89,14.89,0,0,1,3.473,4.153C12.384,7.89,12.369,9.873,12.114,9.9c-.319.083-.84-1.674-2.5-3.921A16.7,16.7,0,0,0,6.2,2.57a2.485,2.485,0,0,0-.915-.483.872.872,0,0,0-.679.182,3.5,3.5,0,0,0-.826.87,7.157,7.157,0,0,0-.686,1.244,21.425,21.425,0,0,0-.925,2.926c-.12.46-.093.669-.058.717a1.27,1.27,0,0,0,.656.425,17.377,17.377,0,0,0,2.475.618c.812.148,1.583.246,2.294.324,2.852.276,4.692.405,4.7.724" transform="translate(78.907 64.141)"/><path class="c" d="M.056,12.082c-.052-.32,1.878-.859,4.909-1.728A37.129,37.129,0,0,0,10.1,8.483a5.247,5.247,0,0,0,1.186-.691.985.985,0,0,0,.267-.317c.025-.068.026-.071.009-.2a9.922,9.922,0,0,0-.581-1.415,14.479,14.479,0,0,0-.806-1.546,6.39,6.39,0,0,0-.982-1.248,3.654,3.654,0,0,0-1.118-.79,1.446,1.446,0,0,0-1-.07,2.974,2.974,0,0,0-1.033.655A20.217,20.217,0,0,0,2.526,7.09C.837,9.806.483,11.9.163,11.84c-.133-.02-.223-.57-.113-1.555A13,13,0,0,1,1.251,6.3,18.219,18.219,0,0,1,4.774,1.325,4.761,4.761,0,0,1,6.467.185a3.307,3.307,0,0,1,2.3.044A4.553,4.553,0,0,1,9.753.75a7,7,0,0,1,.821.671,8.285,8.285,0,0,1,1.336,1.67A15.116,15.116,0,0,1,12.844,4.9c.126.293.251.584.376.874a4.763,4.763,0,0,1,.352,1.153A2.583,2.583,0,0,1,13.33,8.49a3.006,3.006,0,0,1-.843.994,6.653,6.653,0,0,1-1.665.9,26.168,26.168,0,0,1-5.551,1.51c-3.194.493-5.169.474-5.215.19" transform="translate(91.151 62.776)"/><path class="d" d="M0,10.626l38.009.292L38.093.293.084,0Z" transform="translate(66.663 72.329)"/><g transform="translate(81.628 72.329)"><path class="a" d="M0,0H34.436V11.276H0Z" transform="translate(0.137 0.599)"/><g class="e"><path class="b" d="M0,11l34.351.273.085-11L.084,0Z" transform="translate(0.137 0.599)"/></g></g><path class="c" d="M4.081.031,3.849,10.918,0,10.835.268,0Z" transform="translate(100.674 72.329)"/><path class="c" d="M5.442.09,5,10.918l-5-.036L.268,0Z" transform="translate(70.744 72.329)"/></g><g transform="translate(125.515 79.729) rotate(-45)"><path class="f" d="M.1,50.956,0,7.848A7.851,7.851,0,0,1,7.927,0l61.2.444a7.886,7.886,0,0,1,5.821,2.624L93.533,23.84a7.8,7.8,0,0,1,.089,10.309l-18.7,21.637a7.889,7.889,0,0,1-5.936,2.726l-60.983.255H7.973A7.851,7.851,0,0,1,.1,50.956Z" transform="translate(0.957 0.38)"/><path class="g" d="M.1,50.956,0,7.848A7.851,7.851,0,0,1,7.927,0l61.2.444a7.886,7.886,0,0,1,5.821,2.624L93.533,23.84a7.8,7.8,0,0,1,.089,10.309l-18.7,21.637a7.889,7.889,0,0,1-5.936,2.726l-60.983.255H7.973A7.851,7.851,0,0,1,.1,50.956Z" transform="translate(0.957 0.38)"/><path class="b" d="M.1,50.956,0,7.848A7.851,7.851,0,0,1,7.927,0l61.2.444a7.886,7.886,0,0,1,5.821,2.624L93.533,23.84a7.8,7.8,0,0,1,.089,10.309l-18.7,21.637a7.889,7.889,0,0,1-5.936,2.726l-60.984.255H7.972A7.851,7.851,0,0,1,.1,50.956Z" transform="translate(4.816 0.38)"/><path class="g" d="M29.032,31.433h-.087a7.448,7.448,0,0,1-5.567-2.33,8.741,8.741,0,0,1-2.126-6.161c.048-4.995,3.17-8.351,7.769-8.351h.086a7.516,7.516,0,0,1,5.607,2.33,8.721,8.721,0,0,1,2.132,6.16,8.746,8.746,0,0,1-2.224,6.094A7.5,7.5,0,0,1,29.032,31.433Zm.009-13.265h0a2.8,2.8,0,0,0-2.354,1.186,6.231,6.231,0,0,0-.941,3.627,6.2,6.2,0,0,0,.88,3.657,2.8,2.8,0,0,0,2.353,1.216h.033c2.065,0,3.265-1.754,3.294-4.813a6.251,6.251,0,0,0-.864-3.64,2.8,2.8,0,0,0-2.37-1.232H29.04ZM10.211,30.915h0l-5.346-.047L26.635.518l5.348.049ZM7.828,16.842h-.09a7.512,7.512,0,0,1-5.606-2.33A8.72,8.72,0,0,1,0,8.351,8.744,8.744,0,0,1,2.224,2.257,7.5,7.5,0,0,1,7.815,0H7.9a7.467,7.467,0,0,1,5.585,2.315,8.766,8.766,0,0,1,2.108,6.177,8.8,8.8,0,0,1-2.2,6.11A7.444,7.444,0,0,1,7.828,16.842ZM7.835,3.578a2.8,2.8,0,0,0-2.354,1.2,6.222,6.222,0,0,0-.941,3.611,6.2,6.2,0,0,0,.881,3.641,2.8,2.8,0,0,0,2.353,1.232h.034a2.771,2.771,0,0,0,2.37-1.186A6.289,6.289,0,0,0,11.1,8.451a6.258,6.258,0,0,0-.864-3.657A2.773,2.773,0,0,0,7.865,3.578Z" transform="translate(24.989 14.53)"/><path class="f" d="M15.285,6.112a2.881,2.881,0,0,1,.6.432c.377.3.927.755,1.623,1.354s1.542,1.337,2.5,2.23,2.017,1.936,3.119,3.165a31.869,31.869,0,0,1,3.281,4.3l.39.626.369.654a13.8,13.8,0,0,1,.7,1.38,8.619,8.619,0,0,1,.795,3.181,5,5,0,0,1-.254,1.737,4.5,4.5,0,0,1-.905,1.563,5.865,5.865,0,0,1-3.147,1.806,8.539,8.539,0,0,1-3.715-.088,16.209,16.209,0,0,1-3.543-1.306,22.032,22.032,0,0,1-5.914-4.422A28.619,28.619,0,0,1,8.89,20.051Q7.854,18.69,6.921,17.346A51.142,51.142,0,0,1,1.313,7.224Q.859,6.071.522,5c-.11-.357-.215-.7-.3-1.047a6.5,6.5,0,0,1-.2-1.02A2.53,2.53,0,0,1,.475,1.085,2.692,2.692,0,0,1,1.78.174,3.681,3.681,0,0,1,2.435.022,3.577,3.577,0,0,1,3.023.009a2.7,2.7,0,0,1,.895.2A1.677,1.677,0,0,1,4.4.5c.094.085.137.132.128.141S4.457.623,4.353.56A2.151,2.151,0,0,0,3.868.342,2.8,2.8,0,0,0,3.017.222a3.6,3.6,0,0,0-.546.043,3.6,3.6,0,0,0-.6.171,2.432,2.432,0,0,0-1.123.85,2.178,2.178,0,0,0-.33,1.6,6.185,6.185,0,0,0,.215.958c.092.331.2.669.319,1.017.238.693.514,1.42.827,2.173a53.175,53.175,0,0,0,5.679,9.932q.935,1.323,1.971,2.667a28.312,28.312,0,0,0,2.246,2.593A21.594,21.594,0,0,0,17.411,26.5a15.681,15.681,0,0,0,3.381,1.253,7.877,7.877,0,0,0,3.409.1,5.193,5.193,0,0,0,2.784-1.572A4.058,4.058,0,0,0,28,23.442a8.042,8.042,0,0,0-.713-2.942,13.318,13.318,0,0,0-.658-1.337l-.353-.643L25.9,17.9a32.51,32.51,0,0,0-3.158-4.275c-1.064-1.235-2.095-2.3-3.016-3.211s-1.737-1.684-2.4-2.311L15.79,6.653a2.877,2.877,0,0,1-.5-.541" transform="translate(81.19 31.359)"/></g><g transform="translate(117.643 34.049) rotate(-45)"><path class="f" d="M.044,22.515,0,3.468A3.417,3.417,0,0,1,3.4,0L29.625.2A3.338,3.338,0,0,1,32.12,1.355l7.966,9.178a3.527,3.527,0,0,1,.038,4.556l-8.014,9.56a3.337,3.337,0,0,1-2.543,1.205l-26.136.112H3.416A3.417,3.417,0,0,1,.044,22.515Z" transform="translate(0.025 1.678)"/><path class="g" d="M.044,22.515,0,3.468A3.417,3.417,0,0,1,3.4,0L29.625.2A3.338,3.338,0,0,1,32.12,1.355l7.966,9.178a3.527,3.527,0,0,1,.038,4.556l-8.014,9.56a3.337,3.337,0,0,1-2.543,1.205l-26.136.112H3.416A3.417,3.417,0,0,1,.044,22.515Z" transform="translate(0.025 1.678)"/><path class="b" d="M.044,22.515,0,3.468A3.417,3.417,0,0,1,3.4,0L29.625.2A3.338,3.338,0,0,1,32.12,1.355l7.966,9.178a3.527,3.527,0,0,1,.038,4.556l-8.014,9.56a3.337,3.337,0,0,1-2.543,1.205l-26.136.112H3.416A3.417,3.417,0,0,1,.044,22.515Z" transform="translate(0.99 0.712)"/><path class="g" d="M12.9,13.667h-.038a3.361,3.361,0,0,1-2.434-.971,3.725,3.725,0,0,1-.985-2.721A3.378,3.378,0,0,1,12.9,6.344h.038a3.377,3.377,0,0,1,2.492,1.013,3.742,3.742,0,0,1,.948,2.679A3.388,3.388,0,0,1,12.9,13.667Zm0-5.767c-.917,0-1.451.763-1.464,2.093a2.649,2.649,0,0,0,.391,1.59,1.256,1.256,0,0,0,1.046.529h.013c.918,0,1.452-.763,1.465-2.093a2.433,2.433,0,0,0-.523-1.748,1.248,1.248,0,0,0-.915-.37h-.015ZM4.538,13.441h0L2.161,13.42,11.838.226l2.377.021L4.538,13.441ZM3.478,7.323H3.439A3.376,3.376,0,0,1,.948,6.309,3.742,3.742,0,0,1,0,3.631,3.388,3.388,0,0,1,3.472,0h.038A3.37,3.37,0,0,1,5.952.964,3.735,3.735,0,0,1,6.93,3.692a3.773,3.773,0,0,1-.978,2.656A3.349,3.349,0,0,1,3.478,7.323Zm0-5.767c-.9,0-1.45.782-1.464,2.093a2.648,2.648,0,0,0,.392,1.583,1.254,1.254,0,0,0,1.046.536h.014c.918,0,1.452-.763,1.465-2.093a2.437,2.437,0,0,0-.517-1.749,1.254,1.254,0,0,0-.92-.369Z" transform="translate(8.93 7.345)"/><path class="f" d="M6.551,2.619a1.235,1.235,0,0,1,.257.185c.162.129.4.324.7.58s.661.573,1.07.956S9.437,5.17,9.91,5.7a13.658,13.658,0,0,1,1.406,1.841l.167.268.158.28a5.914,5.914,0,0,1,.3.592,3.694,3.694,0,0,1,.341,1.363,2.145,2.145,0,0,1-.109.745,1.93,1.93,0,0,1-.388.67,2.514,2.514,0,0,1-1.349.774,3.659,3.659,0,0,1-1.592-.038,6.947,6.947,0,0,1-1.519-.56,9.442,9.442,0,0,1-2.535-1.9,12.265,12.265,0,0,1-.98-1.143q-.444-.583-.844-1.159A21.918,21.918,0,0,1,.563,3.1Q.368,2.6.224,2.144C.177,1.991.132,1.842.1,1.7A2.786,2.786,0,0,1,.01,1.258,1.084,1.084,0,0,1,.2.465,1.154,1.154,0,0,1,.763.074,1.577,1.577,0,0,1,1.044.009,1.533,1.533,0,0,1,1.3,0a1.159,1.159,0,0,1,.383.084.719.719,0,0,1,.2.126c.04.037.059.057.055.061S1.91.267,1.866.24A.922.922,0,0,0,1.658.147,1.2,1.2,0,0,0,1.293.1a1.543,1.543,0,0,0-.234.019A1.544,1.544,0,0,0,.8.187,1.042,1.042,0,0,0,.322.551a.933.933,0,0,0-.142.685,2.651,2.651,0,0,0,.092.411c.039.142.087.287.137.436.1.3.22.609.355.931A22.789,22.789,0,0,0,3.2,7.271q.4.567.845,1.143a12.134,12.134,0,0,0,.963,1.111,9.254,9.254,0,0,0,2.457,1.83,6.72,6.72,0,0,0,1.449.537,3.376,3.376,0,0,0,1.461.042,2.226,2.226,0,0,0,1.193-.674A1.739,1.739,0,0,0,12,10.047a3.447,3.447,0,0,0-.305-1.261,5.708,5.708,0,0,0-.282-.573l-.151-.275-.16-.265A13.933,13.933,0,0,0,9.747,5.841c-.456-.529-.9-.984-1.293-1.376s-.744-.722-1.03-.991l-.657-.623a1.233,1.233,0,0,1-.216-.232" transform="translate(34.135 14.793)"/></g></g></svg>