<svg id="Layer_1" data-name="Layer 1" xmlns="http://www.w3.org/2000/svg" viewBox="0 0 512 512"><defs><style>.cls-1{fill:#898989;}</style></defs><title>gift-box-other</title><path class="cls-1" d="M506.31,238.93H301.51a5.69,5.69,0,1,1,0-11.38H500.62V102.4H11.38V227.56H210.49a5.69,5.69,0,1,1,0,11.38H5.69A5.69,5.69,0,0,1,0,233.24V96.71A5.69,5.69,0,0,1,5.69,91H506.31A5.69,5.69,0,0,1,512,96.71V233.24A5.69,5.69,0,0,1,506.31,238.93Z"/><path class="cls-1" d="M460.8,512H51.2a5.69,5.69,0,0,1-5.69-5.69V233.24a5.69,5.69,0,0,1,5.69-5.69H210.49a5.69,5.69,0,1,1,0,11.38H56.89V500.62H455.11V238.93H301.51a5.69,5.69,0,1,1,0-11.38H460.8a5.69,5.69,0,0,1,5.69,5.69V506.31A5.69,5.69,0,0,1,460.8,512Z"/><path class="cls-1" d="M256,102.4H210.49a51.2,51.2,0,1,1,51.2-51.2V96.71A5.69,5.69,0,0,1,256,102.4Zm-45.51-91a39.82,39.82,0,0,0,0,79.64h39.82V51.2A39.87,39.87,0,0,0,210.49,11.38Z"/><path class="cls-1" d="M301.51,102.4H256a5.69,5.69,0,0,1-5.69-5.69V51.2a51.2,51.2,0,1,1,51.2,51.2ZM261.69,91h39.82A39.82,39.82,0,1,0,261.69,51.2Z"/><path class="cls-1" d="M301.51,512h-91a5.69,5.69,0,0,1-5.69-5.69V96.71A5.69,5.69,0,0,1,210.49,91h91a5.69,5.69,0,0,1,5.69,5.69v409.6A5.69,5.69,0,0,1,301.51,512Zm-85.33-11.38h79.64V102.4H216.18Z"/></svg>