<svg id="Layer_1" data-name="Layer 1" xmlns="http://www.w3.org/2000/svg" viewBox="0 0 512 512"><defs><style>.cls-1{fill:#727272;}</style></defs><title>price-tag-handdrawn</title><path class="cls-1" d="M261.87,344.32c-.09.54,0,1.22,1.33,2.11a18.13,18.13,0,0,0,2.92,1.76l.28.1a3.24,3.24,0,0,1,0,.71,11.88,11.88,0,0,1-.22,1.52c-.6,3.14-1.34,6.26-2.09,9.37l-2.62,11.26a15.61,15.61,0,0,1-4.73,8.14,15.37,15.37,0,0,1-8.08,3.86,15.2,15.2,0,0,1-8.95-1.35,15.44,15.44,0,0,1-6.44-6,45,45,0,0,1-2.15-4.32l-4.59-10.11a74.29,74.29,0,0,1-3.05-8l-.3-.94,0-.19v-.43a5.75,5.75,0,0,0-.15-.95,6.1,6.1,0,0,0-1.25,0l-4.95.55L204.39,353l-5.38.64c-4.37.31-7.33-.39-10.22-2.08a14.21,14.21,0,0,1-6.61-10.5,13.94,13.94,0,0,1,.75-6.11,16,16,0,0,1,3.39-5.45c1.7-1.84,3.89-3.51,5.8-5.26L196,321l6.5-5.64,1.89-1.61.47-.38.12-.06.26-.13c.37-.18.8-.39,1.25-.66v0c0-.1-.15-.22.09-.29,3.15-.5-.73-6.52-2.7-10.5l-1.43-3-1.53-3.4c-1.3-3.07-3-6.34-3.38-9.12a10.9,10.9,0,0,1,1.22-7.92,11.13,11.13,0,0,1,6.67-5,12.8,12.8,0,0,1,7.55.48c2.6.78,5.47,2.48,8.3,3.94a20.17,20.17,0,0,1,3.26,1.75,68.88,68.88,0,0,0,7.75,5.38l2,1.2,1.19.66,2.17,1.1,2-2.06,1.45-1.39,2-1.83c2.92-2.62,5.73-5.36,8.58-8.05a3.61,3.61,0,0,1,4.39-.94,4.33,4.33,0,0,0,4.68-.47,6.9,6.9,0,0,1,8.56,0c1.68,1.13,2.91,3.65,1.38,5.36a1.75,1.75,0,0,1-1.41.4,6.54,6.54,0,0,1-1.49-.58c-.41-.27-.83-.41-1-.52a1.25,1.25,0,0,0-1.26,0,1.07,1.07,0,0,0-.23.21,2.88,2.88,0,0,1,.15.25l.2.27.11.11.47.53-.1.09q-.79.72-1.65,1.38a42.28,42.28,0,0,0-4,4l-7.43,7.38-3.8,3.75-7.63,7.16c-.74.69-1.49,1.34-2.24,2l-4.87-3.24-9.33-6.24a25.25,25.25,0,0,0-6.81-3,10,10,0,0,1-2.41-1c-.75-.43-1.71-1.08-1.37-1,.3-.59-1.06-2.31-1.64-1.39-.39.66,0,1.14,0,1.81V291c0,.07,0,.13.23.83l1.09,3.21q1.05,3.23,1.94,6.52a14.12,14.12,0,0,0,1.91,3.36,14.47,14.47,0,0,1,1.73,3,82,82,0,0,0,2.94,8c-1.76,1.53-3.42,3.06-5.08,4.64s-3.68,3.55-4.28,4.24c-1.87,2-3.72,3.95-5.77,5.72l-3,2.71c-.39.37-1.2,1.13-1.23,1.19l-.25.34a2.76,2.76,0,0,0-.54,1.16c.08.79.8,1.26,1.23,1.63a1,1,0,0,0,.39.19,3.5,3.5,0,0,0,.8.1l4.13-.36,8.35-.76,5.7-.19,8.27-.3,6.9,19.32q.66,1.73,1.43,3.41c.51,1.13,1.12,2.41,1.32,2.7a14.88,14.88,0,0,0,1.82,2.58c1.41,1.34,3.78.41,5-.49a6.39,6.39,0,0,0,1.12-1.69A27.33,27.33,0,0,0,251,358a45.27,45.27,0,0,1,3-6.09c1.6-2.73,2-5.52,2.69-9.28l.78-4.56,7.47-1.24,6.39-1.15a9.31,9.31,0,0,1,2.6-.1,33.53,33.53,0,0,0,5.47.14,35.23,35.23,0,0,0,4.57-.52c1.64-.37,3.41-.24,5.09-.9a5.38,5.38,0,0,0,2.1-8.2c-.94-1.17-2.45-1.73-3.82-2.43a38.38,38.38,0,0,1-4.79-2.7l-5.5-3.54c-2-1.26-4.06-2.46-6.12-3.63l-7.24-4,1.49-7.67c.15-.77.16-1.47.32-2.19,1.13-5.11,2.22-10.23,3.48-15.31a20.94,20.94,0,0,1,2-4.42c.16-.31.87-.44,1.6-.78,2.62,3.59,4,7,3.45,10.56l-1.6,10.27c-.75,4.56-.45,4.16-.4,4.94l1.29.34c.06,0,0,0,.14.07l.55.36,1.06.78a21.89,21.89,0,0,0,2.14,1.52l7,4,4.67,2.67a65.1,65.1,0,0,1,6.09,3.72,15.9,15.9,0,0,1,2.34,2.3,13.52,13.52,0,0,1,.39,16.25,12.78,12.78,0,0,1-6.8,4.71c-2.78,1-6.61.95-9.9,1.23-1.5.11-2.24.2-3,.29s-1.59.19-2.39.22a12.64,12.64,0,0,1-4.36-.18,20.43,20.43,0,0,0-5.93-.94,19.25,19.25,0,0,0-2.26.08,9.69,9.69,0,0,0-1.73.36,8,8,0,0,1-1.15.25ZM457.16,229.58a36.93,36.93,0,0,1-2,10.76,35.86,35.86,0,0,1-2.19,5.05l-2.15,3.89-8.15,14.55c-2.26,4-4.81,7.92-7.29,11.82-8.47,13.26-16.8,26.53-23.51,40.85a137.16,137.16,0,0,1-8.2,14.47c-9.37,14.86-18.61,29.73-27.35,45.11-14.18,25-28.91,49.66-44.45,73.75-2.18,3.39-3.91,7.2-5.81,10.82a67.22,67.22,0,0,1-3.13,6.11c-3.16,4.72-6.14,9.54-9,14.43l-4.24,7.36-2.07,3.71-1.07,1.9-1.39,2.23C297.47,508.23,281.94,514.65,268,511a35.62,35.62,0,0,1-7.56-2.83l-1.79-.92-1.39-.8-2.79-1.59-11.2-6.31L220.74,486c-15-8.31-29.94-16.72-44.56-25.77-17.69-10.95-35.91-21.19-53.87-31.79-4-2.35-7.89-4.85-11.82-7.3L82.25,403.49l-7.07-4.41c-2.32-1.46-4.69-2.8-7.47-4.89a33.72,33.72,0,0,1-11.13-15.77,34.1,34.1,0,0,1,2.11-26.67L70,330.89c7.65-14.31,15.34-28.55,24.09-42.21,10.7-16.7,20.91-33.82,32.53-49.75,5.53-7.58,10.38-16.37,15.13-24.82l25.43-46.27c1.33-2.41,2.77-4.82,4.29-7.08,6.44-9.58,12.28-19.51,17.92-29.69C192.76,125,196.26,119,199.78,113l5.3-9a31,31,0,0,1,7.12-8.4,29.39,29.39,0,0,1,7.91-4.65,85,85,0,0,1,8.53-2.48c5.59-1.48,11.18-3,16.71-4.63,13.37-3.94,26.87-7.09,40.33-10.54l16.12-4.23a30.1,30.1,0,0,1,17.29.46,39.35,39.35,0,0,1,7.77,3.74l7.25,4.12,9.3,5.29,1.44-3.76c4.21-11.07,9.71-21.59,15.2-32.13,1.6-3.07,3.51-6,5.36-8.94.24-.38.41-.86.82-1.08,5.09-2.75,6.73-7.87,9.58-12.2a56.68,56.68,0,0,1,21-19.91c4.24-2.21,9-4.32,14.34-4.58a13.86,13.86,0,0,1,4.42.2,29.33,29.33,0,0,1,15.14,10.27,28.27,28.27,0,0,1,5.59,16.64,52.56,52.56,0,0,1-1.39,13.16,3.71,3.71,0,0,1-3.31,3.43,4.79,4.79,0,0,0-3.91,2.8c-1.33,3-2.87,5.82-4.18,8.77-.91,2-1.78,4.09-3.87,5.33a2,2,0,0,1-1.56,0,2.54,2.54,0,0,1-1.05-1.29,3.78,3.78,0,0,1-.11-1.86c1.35-5.54,1.63-11.06,3.86-15.75a19.63,19.63,0,0,0,1.13-4.9c1.2-6,1-11.72-.87-15.52a20.36,20.36,0,0,1-.75-2.47c-.85-2.65-3.38-5.27-6.48-4.49a7.56,7.56,0,0,1-2.91-.14c-3.18-.66-7.47.47-11.1,3.22-5.89,4.6-11.49,10.82-17.25,17.41A13.18,13.18,0,0,0,381,38.32c-.29.62-.3,1.46-.77,2-4.81,5.39-6.53,12.55-9.76,18.85-4.93,9.6-7.66,20.16-12.75,29.73-.25.47-.46,1-.7,1.43l29.85,17.42c2.22-3.08,4.71-5.92,7.07-8.89,4.41-5.54,8.23-11.51,12.11-17.42.4-.62.69-1.31,1.11-1.92l8.74-13.27a23.38,23.38,0,0,1,3.3-3.61c.26-.25,1-.15,1.78-.25,1.34,4.27,1.51,8.06-.32,11.35-4.59,8.13-9.24,16.21-14.28,24-1,1.5-2.42,2.69-3.49,4.13l-7.92,10.55,3,1.74c4.34,2.57,8.45,5.53,12.55,8.39.89.62,1.3,1.63,2.31,3a95.52,95.52,0,0,1-22.64-7.13c-5.27,5.89-10.63,11.68-16.17,17.32-1.16,1.17-2.12,2.53-3.31,3.68a13.07,13.07,0,0,1-3.46,2.88,25.9,25.9,0,0,0-9.43,7.68,39.83,39.83,0,0,1-2.79,3,2.09,2.09,0,0,0-.42,2.8c1.42,2.68.63,4.28-.62,5.6a36.31,36.31,0,0,1,2.49,7.19,20.86,20.86,0,0,1,.31,5.47c0,.23.09.49-.14.71-2.92,2.64-2,5-2.2,7.49-.46,4.54-2.78,8.66-5.48,12.1-1.27,1.63-2.21,3.62-3.67,5.24-.38.46-.67,1.05-1.25,1.28-4.78,2-8.53,5.18-13.51,6.3a44.84,44.84,0,0,1-5.85,1c-.76.05-1.52-.19-1.92-2.23s-.92-2.73-1.54-2.88c-1.34-.31-2.63-.74-4-1-.92-.11-1.92-.18-2.29-1.64a3.12,3.12,0,0,1,.18-1.37,5.83,5.83,0,0,1,.76-1.37,2.57,2.57,0,0,1,.86-.75c2.37-.87,4.19-2.52,5.8-1.94.55.17,1.12-.2,1.66-.3a20.14,20.14,0,0,0,5.62-2.17,2.94,2.94,0,0,1,1.28-.11c1.55.08,3.23-.32,3.46-2.26.08-.64.51-.86,1-1.05a6.5,6.5,0,0,0,3.79-3.06c1.21-2.43,2.42-4.66,4.09-7.4.28-.39-.19-.85-.32-1.25-.09-.23-.48-.47-.32-.68,1.43-2.31-.56-4.45-1.26-6.41a22.84,22.84,0,0,1-2.82,1.3l-3,.74a22.12,22.12,0,0,1-2.86.17,22.59,22.59,0,0,1-5.47-1.51c-3.38-2.51-5.52-5-6.19-9.49a35.54,35.54,0,0,1-.29-6.22,9.76,9.76,0,0,0-2.83,1.21c-1.56,1-2.84,2-4.69,2.2-2.32.26-4.18,1.3-7.3,1.57-1.52.16-2.18,1.33-2.76,2.4a18.8,18.8,0,0,0-2,6.27,2,2,0,0,1-.48.89,5.16,5.16,0,0,0-1.52,4c0,1.73-.34,3.45-.17,5.19a11.33,11.33,0,0,0,.82,4.26c.81,1.57,1,3.3,1.68,5a19,19,0,0,0,5.22,6.52,6.76,6.76,0,0,0,.74.47,34.18,34.18,0,0,0,5.09,3.63,5,5,0,0,1,1.35,1.71,7,7,0,0,1-.09,1.5c-2.36,2.51-4.83,3.84-6.56,3a33.19,33.19,0,0,1-11.79-8.65c-.63-.75-.7-1.85-1.18-2.67a38.43,38.43,0,0,1-3.47-8.11,6.58,6.58,0,0,1-.26-1.17,32.18,32.18,0,0,1,1.15-13.28,17.24,17.24,0,0,1,.59-2.44c.29-.7.43-1.49,1.21-2a7.59,7.59,0,0,0,3.79-4.7,6.41,6.41,0,0,1,.83-1.73c.24-.38.26-.84-.84-1.84-2.67-2.43-2.09-3.56-1.39-4.51a24.14,24.14,0,0,1,4-4,35.21,35.21,0,0,1,16.23-7.17c.48-.07.94-.26,1.43-.33a28.19,28.19,0,0,1,5.26-.57l1-3.77.64-2.71c1.46-5.83,2.89-11.59,5.35-17,4.09-9,7.17-18.2,10.47-27.39l-13.3-7.34-4.71-2.6-2.35-1.3c-.58-.31-1.17-.59-1.77-.85a20.58,20.58,0,0,0-7.58-1.63,27.65,27.65,0,0,0-6,.44c-2.53.54-5.38,1.19-8,1.89L246.88,93.07l-6.72,1.8-9.61,2.37-4.78,1.18a20.73,20.73,0,0,0-3.49,1.19,21.11,21.11,0,0,0-6.16,4.12,21.69,21.69,0,0,0-2.46,2.82c-.39.52-.68,1-1.07,1.61l-1.28,2.12-20.48,33.91-7.68,13.2A124.12,124.12,0,0,1,175.72,169a218.85,218.85,0,0,0-19.94,31.47c-2,3.67-4.06,7.28-6.12,10.92-1.44,2.55-2.56,5-1.89,6.76,1.62,4.37-1.6,10.25-4.83,15.93L127.56,260.5,76.68,346.73,72.53,354l-1.69,2.94c-.63,1.06-.77,1.53-1.21,2.31a20.14,20.14,0,0,0-1.4,4.52,19.79,19.79,0,0,0,.5,9.38,20.33,20.33,0,0,0,4.66,8.17,19.82,19.82,0,0,0,3.63,3.1c1.35,1,3.69,2.31,5.48,3.46,27.82,17.48,56.58,33.56,85.25,49.73l27.82,15.78c15.94,9,31.75,18.14,47.52,27.38l23.49,13.76a20.52,20.52,0,0,0,19.26.38,21.88,21.88,0,0,0,8.6-7.82l8.27-13.6A24.77,24.77,0,0,1,305,470c10.19-11.49,17.27-25.94,24.8-39.35,13.86-24.69,28.43-48.85,42.8-73.19,6.82-11.55,13.1-23.43,19.64-35.15,1.8-3.24,3.47-6.61,5.46-9.68,8.55-13.24,16.51-26.84,24.3-40.54l11.61-20.59,5.81-10.29a35.54,35.54,0,0,0,2.4-4.67,23.93,23.93,0,0,0,1.36-4.71,23.29,23.29,0,0,0,.07-7.76c-.39-2.33-1.44-5.62-2.22-8.58l-5-18.07c-1.27-4.6-2.23-9.05-1.05-12.56s.69-7.8-.44-12.4c-2.43-9.87-4.86-19.76-7.61-29.53-1.74-6.93-6-12.63-10.81-17.6-.82-.85-1.72-2.12-1.61-2.64s1.52-.54,2.63-.17a16.27,16.27,0,0,1,5.21,3,34,34,0,0,1,9.44,12.77c1.1,2.75,1.65,4.44,2.47,6.66l2.22,6.32c2.91,8.45,5.6,17,7.72,25.95,1.39,5.82,3.32,11.55,5,17.34l4.57,16,2.31,8.17A36.87,36.87,0,0,1,457.16,229.58ZM353.38,98.38c-1.16,2.86-2.26,5.75-3.42,8.6-.54,1.35-1.24,2.64-1.88,4a194,194,0,0,0-8.57,19.21,62.75,62.75,0,0,0-3.09,14.35l-.11,1.2a43.54,43.54,0,0,1,6.56,3.13,39.62,39.62,0,0,1,4.43,3.33c.1.09.18.2.28.29.76-.69,1.5-1.41,2.17-2.09a165.69,165.69,0,0,0,10.89-12.69,10.15,10.15,0,0,1,1.9-1.82,37.09,37.09,0,0,0,7.78-7.81c2.7-3.49,5.75-6.71,8.58-10.11,1-1.24,2.06-2.47,3.08-3.72Z"/></svg>